%TF.GenerationSoftware,KiCad,Pcbnew,(5.1.10)-1*%
%TF.CreationDate,2022-07-24T21:09:46+02:00*%
%TF.ProjectId,PCB,5043422e-6b69-4636-9164-5f7063625858,rev?*%
%TF.SameCoordinates,Original*%
%TF.FileFunction,Copper,L1,Top*%
%TF.FilePolarity,Positive*%
%FSLAX46Y46*%
G04 Gerber Fmt 4.6, Leading zero omitted, Abs format (unit mm)*
G04 Created by KiCad (PCBNEW (5.1.10)-1) date 2022-07-24 21:09:46*
%MOMM*%
%LPD*%
G01*
G04 APERTURE LIST*
%TA.AperFunction,ComponentPad*%
%ADD10C,1.600000*%
%TD*%
%TA.AperFunction,ComponentPad*%
%ADD11R,1.600000X1.600000*%
%TD*%
%TA.AperFunction,SMDPad,CuDef*%
%ADD12R,1.450000X2.100000*%
%TD*%
%TA.AperFunction,SMDPad,CuDef*%
%ADD13R,1.700000X0.650000*%
%TD*%
%TA.AperFunction,SMDPad,CuDef*%
%ADD14R,1.550000X1.300000*%
%TD*%
%TA.AperFunction,ViaPad*%
%ADD15C,0.700000*%
%TD*%
%TA.AperFunction,Conductor*%
%ADD16C,0.400000*%
%TD*%
%TA.AperFunction,Conductor*%
%ADD17C,0.500000*%
%TD*%
%TA.AperFunction,Conductor*%
%ADD18C,0.800000*%
%TD*%
%TA.AperFunction,Conductor*%
%ADD19C,0.254000*%
%TD*%
%TA.AperFunction,Conductor*%
%ADD20C,0.100000*%
%TD*%
G04 APERTURE END LIST*
%TO.P,C1,2*%
%TO.N,GND*%
%TA.AperFunction,SMDPad,CuDef*%
G36*
G01*
X164350000Y-129887500D02*
X165300000Y-129887500D01*
G75*
G02*
X165550000Y-130137500I0J-250000D01*
G01*
X165550000Y-130812500D01*
G75*
G02*
X165300000Y-131062500I-250000J0D01*
G01*
X164350000Y-131062500D01*
G75*
G02*
X164100000Y-130812500I0J250000D01*
G01*
X164100000Y-130137500D01*
G75*
G02*
X164350000Y-129887500I250000J0D01*
G01*
G37*
%TD.AperFunction*%
%TO.P,C1,1*%
%TO.N,+5V*%
%TA.AperFunction,SMDPad,CuDef*%
G36*
G01*
X164350000Y-127812500D02*
X165300000Y-127812500D01*
G75*
G02*
X165550000Y-128062500I0J-250000D01*
G01*
X165550000Y-128737500D01*
G75*
G02*
X165300000Y-128987500I-250000J0D01*
G01*
X164350000Y-128987500D01*
G75*
G02*
X164100000Y-128737500I0J250000D01*
G01*
X164100000Y-128062500D01*
G75*
G02*
X164350000Y-127812500I250000J0D01*
G01*
G37*
%TD.AperFunction*%
%TD*%
D10*
%TO.P,J1,6*%
%TO.N,GND*%
X144540000Y-135880000D03*
%TO.P,J1,4*%
%TO.N,/MCU_OUT_THROTTLE_SIG*%
X144540000Y-133340000D03*
%TO.P,J1,2*%
%TO.N,+5V*%
X144540000Y-130800000D03*
%TO.P,J1,5*%
%TO.N,Net-(J1-Pad5)*%
X142000000Y-135880000D03*
%TO.P,J1,3*%
%TO.N,/THROTTLE_PEDAL_SIG*%
X142000000Y-133340000D03*
%TO.P,J1,1*%
%TO.N,Net-(J1-Pad1)*%
%TA.AperFunction,ComponentPad*%
G36*
G01*
X141200000Y-131364800D02*
X141200000Y-130235200D01*
G75*
G02*
X141435200Y-130000000I235200J0D01*
G01*
X142564800Y-130000000D01*
G75*
G02*
X142800000Y-130235200I0J-235200D01*
G01*
X142800000Y-131364800D01*
G75*
G02*
X142564800Y-131600000I-235200J0D01*
G01*
X141435200Y-131600000D01*
G75*
G02*
X141200000Y-131364800I0J235200D01*
G01*
G37*
%TD.AperFunction*%
%TD*%
%TO.P,J3,5*%
%TO.N,+5V*%
X162600000Y-123200000D03*
%TO.P,J3,4*%
%TO.N,/THROTTLE_PEDAL_SIG*%
X165100000Y-123200000D03*
%TO.P,J3,3*%
%TO.N,/KEY*%
X167600000Y-123200000D03*
%TO.P,J3,2*%
%TO.N,/THROTTLE_COND_SIG*%
X170100000Y-123200000D03*
D11*
%TO.P,J3,1*%
%TO.N,GND*%
X172600000Y-123200000D03*
%TD*%
%TO.P,J2,1*%
%TO.N,+5V*%
X156600000Y-123200000D03*
D10*
%TO.P,J2,2*%
%TO.N,/THROTTLE_PEDAL_SIG*%
X154100000Y-123200000D03*
%TO.P,J2,3*%
%TO.N,GND*%
X151600000Y-123200000D03*
%TD*%
D12*
%TO.P,U2,4*%
%TO.N,/KEY*%
X167800000Y-128100000D03*
%TO.P,U2,3*%
%TO.N,/THROTTLE_COND_SIG*%
X170340000Y-128100000D03*
%TO.P,U2,2*%
%TO.N,GND*%
X170340000Y-137200000D03*
%TO.P,U2,1*%
%TO.N,Net-(R2-Pad1)*%
X167800000Y-137200000D03*
%TD*%
D13*
%TO.P,U1,8*%
%TO.N,+5V*%
X162600000Y-128130000D03*
%TO.P,U1,7*%
%TO.N,/THROTTLE_PEDAL_SIG*%
X162600000Y-129400000D03*
%TO.P,U1,6*%
%TO.N,Net-(J1-Pad1)*%
X162600000Y-130670000D03*
%TO.P,U1,5*%
%TO.N,/MCU_OUT_THROTTLE_SIG*%
X162600000Y-131940000D03*
%TO.P,U1,4*%
%TO.N,GND*%
X155300000Y-131940000D03*
%TO.P,U1,3*%
%TO.N,/MCU_IN_BT*%
X155300000Y-130670000D03*
%TO.P,U1,2*%
%TO.N,/MCU_OUT_LED*%
X155300000Y-129400000D03*
%TO.P,U1,1*%
%TO.N,Net-(J1-Pad5)*%
X155300000Y-128130000D03*
%TD*%
D14*
%TO.P,SW1,4*%
%TO.N,/MCU_IN_BT*%
X154925000Y-134650000D03*
%TO.P,SW1,3*%
X162875000Y-134650000D03*
%TO.P,SW1,2*%
%TO.N,GND*%
X154925000Y-139150000D03*
%TO.P,SW1,1*%
X162875000Y-139150000D03*
%TD*%
%TO.P,R6,2*%
%TO.N,GND*%
%TA.AperFunction,SMDPad,CuDef*%
G36*
G01*
X172849999Y-129500000D02*
X173750001Y-129500000D01*
G75*
G02*
X174000000Y-129749999I0J-249999D01*
G01*
X174000000Y-130450001D01*
G75*
G02*
X173750001Y-130700000I-249999J0D01*
G01*
X172849999Y-130700000D01*
G75*
G02*
X172600000Y-130450001I0J249999D01*
G01*
X172600000Y-129749999D01*
G75*
G02*
X172849999Y-129500000I249999J0D01*
G01*
G37*
%TD.AperFunction*%
%TO.P,R6,1*%
%TO.N,/THROTTLE_COND_SIG*%
%TA.AperFunction,SMDPad,CuDef*%
G36*
G01*
X172849999Y-127500000D02*
X173750001Y-127500000D01*
G75*
G02*
X174000000Y-127749999I0J-249999D01*
G01*
X174000000Y-128450001D01*
G75*
G02*
X173750001Y-128700000I-249999J0D01*
G01*
X172849999Y-128700000D01*
G75*
G02*
X172600000Y-128450001I0J249999D01*
G01*
X172600000Y-127749999D01*
G75*
G02*
X172849999Y-127500000I249999J0D01*
G01*
G37*
%TD.AperFunction*%
%TD*%
%TO.P,R5,2*%
%TO.N,/MCU_IN_BT*%
%TA.AperFunction,SMDPad,CuDef*%
G36*
G01*
X150900000Y-137250001D02*
X150900000Y-136349999D01*
G75*
G02*
X151149999Y-136100000I249999J0D01*
G01*
X151850001Y-136100000D01*
G75*
G02*
X152100000Y-136349999I0J-249999D01*
G01*
X152100000Y-137250001D01*
G75*
G02*
X151850001Y-137500000I-249999J0D01*
G01*
X151149999Y-137500000D01*
G75*
G02*
X150900000Y-137250001I0J249999D01*
G01*
G37*
%TD.AperFunction*%
%TO.P,R5,1*%
%TO.N,+5V*%
%TA.AperFunction,SMDPad,CuDef*%
G36*
G01*
X148900000Y-137250001D02*
X148900000Y-136349999D01*
G75*
G02*
X149149999Y-136100000I249999J0D01*
G01*
X149850001Y-136100000D01*
G75*
G02*
X150100000Y-136349999I0J-249999D01*
G01*
X150100000Y-137250001D01*
G75*
G02*
X149850001Y-137500000I-249999J0D01*
G01*
X149149999Y-137500000D01*
G75*
G02*
X148900000Y-137250001I0J249999D01*
G01*
G37*
%TD.AperFunction*%
%TD*%
%TO.P,R4,2*%
%TO.N,/MCU_OUT_LED*%
%TA.AperFunction,SMDPad,CuDef*%
G36*
G01*
X150900000Y-135050001D02*
X150900000Y-134149999D01*
G75*
G02*
X151149999Y-133900000I249999J0D01*
G01*
X151850001Y-133900000D01*
G75*
G02*
X152100000Y-134149999I0J-249999D01*
G01*
X152100000Y-135050001D01*
G75*
G02*
X151850001Y-135300000I-249999J0D01*
G01*
X151149999Y-135300000D01*
G75*
G02*
X150900000Y-135050001I0J249999D01*
G01*
G37*
%TD.AperFunction*%
%TO.P,R4,1*%
%TO.N,Net-(D2-Pad2)*%
%TA.AperFunction,SMDPad,CuDef*%
G36*
G01*
X148900000Y-135050001D02*
X148900000Y-134149999D01*
G75*
G02*
X149149999Y-133900000I249999J0D01*
G01*
X149850001Y-133900000D01*
G75*
G02*
X150100000Y-134149999I0J-249999D01*
G01*
X150100000Y-135050001D01*
G75*
G02*
X149850001Y-135300000I-249999J0D01*
G01*
X149149999Y-135300000D01*
G75*
G02*
X148900000Y-135050001I0J249999D01*
G01*
G37*
%TD.AperFunction*%
%TD*%
%TO.P,R3,2*%
%TO.N,GND*%
%TA.AperFunction,SMDPad,CuDef*%
G36*
G01*
X170000000Y-140150001D02*
X170000000Y-139249999D01*
G75*
G02*
X170249999Y-139000000I249999J0D01*
G01*
X170950001Y-139000000D01*
G75*
G02*
X171200000Y-139249999I0J-249999D01*
G01*
X171200000Y-140150001D01*
G75*
G02*
X170950001Y-140400000I-249999J0D01*
G01*
X170249999Y-140400000D01*
G75*
G02*
X170000000Y-140150001I0J249999D01*
G01*
G37*
%TD.AperFunction*%
%TO.P,R3,1*%
%TO.N,Net-(R2-Pad1)*%
%TA.AperFunction,SMDPad,CuDef*%
G36*
G01*
X168000000Y-140150001D02*
X168000000Y-139249999D01*
G75*
G02*
X168249999Y-139000000I249999J0D01*
G01*
X168950001Y-139000000D01*
G75*
G02*
X169200000Y-139249999I0J-249999D01*
G01*
X169200000Y-140150001D01*
G75*
G02*
X168950001Y-140400000I-249999J0D01*
G01*
X168249999Y-140400000D01*
G75*
G02*
X168000000Y-140150001I0J249999D01*
G01*
G37*
%TD.AperFunction*%
%TD*%
%TO.P,R2,2*%
%TO.N,/MCU_OUT_THROTTLE_SIG*%
%TA.AperFunction,SMDPad,CuDef*%
G36*
G01*
X165250001Y-132850000D02*
X164349999Y-132850000D01*
G75*
G02*
X164100000Y-132600001I0J249999D01*
G01*
X164100000Y-131899999D01*
G75*
G02*
X164349999Y-131650000I249999J0D01*
G01*
X165250001Y-131650000D01*
G75*
G02*
X165500000Y-131899999I0J-249999D01*
G01*
X165500000Y-132600001D01*
G75*
G02*
X165250001Y-132850000I-249999J0D01*
G01*
G37*
%TD.AperFunction*%
%TO.P,R2,1*%
%TO.N,Net-(R2-Pad1)*%
%TA.AperFunction,SMDPad,CuDef*%
G36*
G01*
X165250001Y-134850000D02*
X164349999Y-134850000D01*
G75*
G02*
X164100000Y-134600001I0J249999D01*
G01*
X164100000Y-133899999D01*
G75*
G02*
X164349999Y-133650000I249999J0D01*
G01*
X165250001Y-133650000D01*
G75*
G02*
X165500000Y-133899999I0J-249999D01*
G01*
X165500000Y-134600001D01*
G75*
G02*
X165250001Y-134850000I-249999J0D01*
G01*
G37*
%TD.AperFunction*%
%TD*%
%TO.P,R1,2*%
%TO.N,+5V*%
%TA.AperFunction,SMDPad,CuDef*%
G36*
G01*
X150100000Y-127849999D02*
X150100000Y-128750001D01*
G75*
G02*
X149850001Y-129000000I-249999J0D01*
G01*
X149149999Y-129000000D01*
G75*
G02*
X148900000Y-128750001I0J249999D01*
G01*
X148900000Y-127849999D01*
G75*
G02*
X149149999Y-127600000I249999J0D01*
G01*
X149850001Y-127600000D01*
G75*
G02*
X150100000Y-127849999I0J-249999D01*
G01*
G37*
%TD.AperFunction*%
%TO.P,R1,1*%
%TO.N,Net-(D1-Pad2)*%
%TA.AperFunction,SMDPad,CuDef*%
G36*
G01*
X152100000Y-127849999D02*
X152100000Y-128750001D01*
G75*
G02*
X151850001Y-129000000I-249999J0D01*
G01*
X151149999Y-129000000D01*
G75*
G02*
X150900000Y-128750001I0J249999D01*
G01*
X150900000Y-127849999D01*
G75*
G02*
X151149999Y-127600000I249999J0D01*
G01*
X151850001Y-127600000D01*
G75*
G02*
X152100000Y-127849999I0J-249999D01*
G01*
G37*
%TD.AperFunction*%
%TD*%
%TO.P,D2,2*%
%TO.N,Net-(D2-Pad2)*%
%TA.AperFunction,SMDPad,CuDef*%
G36*
G01*
X150925000Y-132950001D02*
X150925000Y-132049999D01*
G75*
G02*
X151174999Y-131800000I249999J0D01*
G01*
X151825001Y-131800000D01*
G75*
G02*
X152075000Y-132049999I0J-249999D01*
G01*
X152075000Y-132950001D01*
G75*
G02*
X151825001Y-133200000I-249999J0D01*
G01*
X151174999Y-133200000D01*
G75*
G02*
X150925000Y-132950001I0J249999D01*
G01*
G37*
%TD.AperFunction*%
%TO.P,D2,1*%
%TO.N,GND*%
%TA.AperFunction,SMDPad,CuDef*%
G36*
G01*
X148875000Y-132950001D02*
X148875000Y-132049999D01*
G75*
G02*
X149124999Y-131800000I249999J0D01*
G01*
X149775001Y-131800000D01*
G75*
G02*
X150025000Y-132049999I0J-249999D01*
G01*
X150025000Y-132950001D01*
G75*
G02*
X149775001Y-133200000I-249999J0D01*
G01*
X149124999Y-133200000D01*
G75*
G02*
X148875000Y-132950001I0J249999D01*
G01*
G37*
%TD.AperFunction*%
%TD*%
%TO.P,D1,2*%
%TO.N,Net-(D1-Pad2)*%
%TA.AperFunction,SMDPad,CuDef*%
G36*
G01*
X150925000Y-130850001D02*
X150925000Y-129949999D01*
G75*
G02*
X151174999Y-129700000I249999J0D01*
G01*
X151825001Y-129700000D01*
G75*
G02*
X152075000Y-129949999I0J-249999D01*
G01*
X152075000Y-130850001D01*
G75*
G02*
X151825001Y-131100000I-249999J0D01*
G01*
X151174999Y-131100000D01*
G75*
G02*
X150925000Y-130850001I0J249999D01*
G01*
G37*
%TD.AperFunction*%
%TO.P,D1,1*%
%TO.N,GND*%
%TA.AperFunction,SMDPad,CuDef*%
G36*
G01*
X148875000Y-130850001D02*
X148875000Y-129949999D01*
G75*
G02*
X149124999Y-129700000I249999J0D01*
G01*
X149775001Y-129700000D01*
G75*
G02*
X150025000Y-129949999I0J-249999D01*
G01*
X150025000Y-130850001D01*
G75*
G02*
X149775001Y-131100000I-249999J0D01*
G01*
X149124999Y-131100000D01*
G75*
G02*
X148875000Y-130850001I0J249999D01*
G01*
G37*
%TD.AperFunction*%
%TD*%
D15*
%TO.N,GND*%
X154700000Y-133100000D03*
X155500000Y-133100000D03*
X157100000Y-132300000D03*
X157100000Y-131500000D03*
X153100000Y-139100000D03*
X154900000Y-140800000D03*
X156700000Y-139100000D03*
X161100000Y-139100000D03*
X162900000Y-140800000D03*
X164700000Y-139100000D03*
X172100000Y-136600000D03*
X172100000Y-137800000D03*
X173300000Y-131700000D03*
X175000000Y-130100000D03*
X148000000Y-130400000D03*
X147900000Y-132000000D03*
X147900000Y-132900000D03*
X157100000Y-133100000D03*
X156300000Y-133100000D03*
X170600000Y-141100000D03*
X172100000Y-139700000D03*
X166500000Y-130500000D03*
%TO.N,/MCU_OUT_THROTTLE_SIG*%
X146950000Y-129400000D03*
X160300000Y-131940000D03*
%TO.N,+5V*%
X147800000Y-136800000D03*
%TO.N,Net-(J1-Pad5)*%
X157600000Y-126800000D03*
%TO.N,/THROTTLE_PEDAL_SIG*%
X160300000Y-129400000D03*
%TO.N,Net-(J1-Pad1)*%
X160300000Y-130670000D03*
%TD*%
D16*
%TO.N,Net-(D1-Pad2)*%
X151500000Y-128300000D02*
X151500000Y-130400000D01*
%TO.N,GND*%
X170340000Y-139440000D02*
X170600000Y-139700000D01*
X170340000Y-137200000D02*
X170340000Y-139440000D01*
%TO.N,Net-(D2-Pad2)*%
X149500000Y-134500000D02*
X151500000Y-132500000D01*
X149500000Y-134600000D02*
X149500000Y-134500000D01*
%TO.N,/MCU_OUT_THROTTLE_SIG*%
X162560000Y-131900000D02*
X162600000Y-131940000D01*
X160300000Y-131940000D02*
X162600000Y-131940000D01*
X146950000Y-129894974D02*
X146950000Y-129400000D01*
X146950001Y-132149999D02*
X146950000Y-129894974D01*
X145760000Y-133340000D02*
X146950001Y-132149999D01*
X144540000Y-133340000D02*
X145760000Y-133340000D01*
X164690000Y-131940000D02*
X165000000Y-132250000D01*
X164490000Y-131940000D02*
X164800000Y-132250000D01*
X162600000Y-131940000D02*
X164490000Y-131940000D01*
D17*
%TO.N,+5V*%
X156600000Y-123200000D02*
X156600000Y-124900000D01*
X156600000Y-124900000D02*
X155300000Y-126200000D01*
X155300000Y-126200000D02*
X150500000Y-126200000D01*
X149500000Y-127200000D02*
X149500000Y-128300000D01*
X150500000Y-126200000D02*
X149500000Y-127200000D01*
D16*
X149500000Y-136800000D02*
X147800000Y-136800000D01*
D17*
X144540000Y-129860000D02*
X144540000Y-130800000D01*
X146100000Y-128300000D02*
X144540000Y-129860000D01*
X149500000Y-128300000D02*
X146100000Y-128300000D01*
X156600000Y-123200000D02*
X162600000Y-123200000D01*
D16*
X162600000Y-128130000D02*
X162600000Y-125900000D01*
X162600000Y-125900000D02*
X162600000Y-123200000D01*
X164780000Y-128130000D02*
X165000000Y-128350000D01*
D17*
X164555000Y-128130000D02*
X164825000Y-128400000D01*
X162600000Y-128130000D02*
X164555000Y-128130000D01*
D16*
%TO.N,Net-(J1-Pad5)*%
X155300000Y-128130000D02*
X156170000Y-128130000D01*
X156270000Y-128130000D02*
X157600000Y-126800000D01*
X155300000Y-128130000D02*
X156270000Y-128130000D01*
D17*
%TO.N,/THROTTLE_PEDAL_SIG*%
X165100000Y-123200000D02*
X165100000Y-122100000D01*
X165100000Y-122100000D02*
X164400000Y-121400000D01*
X154100000Y-123200000D02*
X154100000Y-122100000D01*
X154800000Y-121400000D02*
X164400000Y-121400000D01*
X154100000Y-122100000D02*
X154800000Y-121400000D01*
D16*
X160300000Y-129400000D02*
X162600000Y-129400000D01*
X165100000Y-125100000D02*
X165100000Y-123200000D01*
X166400000Y-126400000D02*
X165100000Y-125100000D01*
X166400000Y-129100000D02*
X166400000Y-126400000D01*
X166100000Y-129400000D02*
X166400000Y-129100000D01*
X162600000Y-129400000D02*
X166100000Y-129400000D01*
%TO.N,Net-(J1-Pad1)*%
X160300000Y-130670000D02*
X162600000Y-130670000D01*
D18*
%TO.N,/KEY*%
X167800000Y-123400000D02*
X167600000Y-123200000D01*
X167800000Y-128100000D02*
X167800000Y-123400000D01*
D17*
%TO.N,/THROTTLE_COND_SIG*%
X170790000Y-128100000D02*
X173300000Y-128100000D01*
D18*
X170340000Y-123440000D02*
X170100000Y-123200000D01*
X170340000Y-128100000D02*
X170340000Y-123440000D01*
D16*
%TO.N,Net-(R2-Pad1)*%
X165000000Y-133940000D02*
X166540000Y-133940000D01*
X168250000Y-135650000D02*
X166540000Y-133940000D01*
X168250000Y-137200000D02*
X168250000Y-135650000D01*
X168600000Y-137550000D02*
X168250000Y-137200000D01*
X168600000Y-139700000D02*
X168600000Y-137550000D01*
%TO.N,/MCU_OUT_LED*%
X154050000Y-129400000D02*
X153000000Y-130450000D01*
X155300000Y-129400000D02*
X154050000Y-129400000D01*
X153000000Y-133100000D02*
X153000000Y-131400000D01*
X151500000Y-134600000D02*
X153000000Y-133100000D01*
X153000000Y-131400000D02*
X153000000Y-131800000D01*
X153000000Y-130450000D02*
X153000000Y-131400000D01*
%TO.N,/MCU_IN_BT*%
X151500000Y-136800000D02*
X153600000Y-136800000D01*
X154925000Y-135475000D02*
X154925000Y-134650000D01*
X153600000Y-136800000D02*
X154925000Y-135475000D01*
X154925000Y-134650000D02*
X154050000Y-134650000D01*
X154925000Y-134650000D02*
X154250000Y-134650000D01*
X154250000Y-134650000D02*
X153600000Y-134000000D01*
X154050000Y-130670000D02*
X155300000Y-130670000D01*
X153600000Y-131120000D02*
X154050000Y-130670000D01*
X153600000Y-134000000D02*
X153600000Y-131120000D01*
X162875000Y-134650000D02*
X161925000Y-135600000D01*
X155875000Y-135600000D02*
X154925000Y-134650000D01*
X161925000Y-135600000D02*
X155875000Y-135600000D01*
%TD*%
D19*
%TO.N,GND*%
X177340000Y-141340000D02*
X138660000Y-141340000D01*
X138660000Y-139800000D01*
X153511928Y-139800000D01*
X153524188Y-139924482D01*
X153560498Y-140044180D01*
X153619463Y-140154494D01*
X153698815Y-140251185D01*
X153795506Y-140330537D01*
X153905820Y-140389502D01*
X154025518Y-140425812D01*
X154150000Y-140438072D01*
X154639250Y-140435000D01*
X154798000Y-140276250D01*
X154798000Y-139277000D01*
X155052000Y-139277000D01*
X155052000Y-140276250D01*
X155210750Y-140435000D01*
X155700000Y-140438072D01*
X155824482Y-140425812D01*
X155944180Y-140389502D01*
X156054494Y-140330537D01*
X156151185Y-140251185D01*
X156230537Y-140154494D01*
X156289502Y-140044180D01*
X156325812Y-139924482D01*
X156338072Y-139800000D01*
X161461928Y-139800000D01*
X161474188Y-139924482D01*
X161510498Y-140044180D01*
X161569463Y-140154494D01*
X161648815Y-140251185D01*
X161745506Y-140330537D01*
X161855820Y-140389502D01*
X161975518Y-140425812D01*
X162100000Y-140438072D01*
X162589250Y-140435000D01*
X162748000Y-140276250D01*
X162748000Y-139277000D01*
X163002000Y-139277000D01*
X163002000Y-140276250D01*
X163160750Y-140435000D01*
X163650000Y-140438072D01*
X163774482Y-140425812D01*
X163894180Y-140389502D01*
X164004494Y-140330537D01*
X164101185Y-140251185D01*
X164180537Y-140154494D01*
X164239502Y-140044180D01*
X164275812Y-139924482D01*
X164288072Y-139800000D01*
X164285000Y-139435750D01*
X164126250Y-139277000D01*
X163002000Y-139277000D01*
X162748000Y-139277000D01*
X161623750Y-139277000D01*
X161465000Y-139435750D01*
X161461928Y-139800000D01*
X156338072Y-139800000D01*
X156335000Y-139435750D01*
X156176250Y-139277000D01*
X155052000Y-139277000D01*
X154798000Y-139277000D01*
X153673750Y-139277000D01*
X153515000Y-139435750D01*
X153511928Y-139800000D01*
X138660000Y-139800000D01*
X138660000Y-138500000D01*
X153511928Y-138500000D01*
X153515000Y-138864250D01*
X153673750Y-139023000D01*
X154798000Y-139023000D01*
X154798000Y-138023750D01*
X155052000Y-138023750D01*
X155052000Y-139023000D01*
X156176250Y-139023000D01*
X156335000Y-138864250D01*
X156338072Y-138500000D01*
X161461928Y-138500000D01*
X161465000Y-138864250D01*
X161623750Y-139023000D01*
X162748000Y-139023000D01*
X162748000Y-138023750D01*
X163002000Y-138023750D01*
X163002000Y-139023000D01*
X164126250Y-139023000D01*
X164285000Y-138864250D01*
X164288072Y-138500000D01*
X164275812Y-138375518D01*
X164239502Y-138255820D01*
X164180537Y-138145506D01*
X164101185Y-138048815D01*
X164004494Y-137969463D01*
X163894180Y-137910498D01*
X163774482Y-137874188D01*
X163650000Y-137861928D01*
X163160750Y-137865000D01*
X163002000Y-138023750D01*
X162748000Y-138023750D01*
X162589250Y-137865000D01*
X162100000Y-137861928D01*
X161975518Y-137874188D01*
X161855820Y-137910498D01*
X161745506Y-137969463D01*
X161648815Y-138048815D01*
X161569463Y-138145506D01*
X161510498Y-138255820D01*
X161474188Y-138375518D01*
X161461928Y-138500000D01*
X156338072Y-138500000D01*
X156325812Y-138375518D01*
X156289502Y-138255820D01*
X156230537Y-138145506D01*
X156151185Y-138048815D01*
X156054494Y-137969463D01*
X155944180Y-137910498D01*
X155824482Y-137874188D01*
X155700000Y-137861928D01*
X155210750Y-137865000D01*
X155052000Y-138023750D01*
X154798000Y-138023750D01*
X154639250Y-137865000D01*
X154150000Y-137861928D01*
X154025518Y-137874188D01*
X153905820Y-137910498D01*
X153795506Y-137969463D01*
X153698815Y-138048815D01*
X153619463Y-138145506D01*
X153560498Y-138255820D01*
X153524188Y-138375518D01*
X153511928Y-138500000D01*
X138660000Y-138500000D01*
X138660000Y-130235200D01*
X140561928Y-130235200D01*
X140561928Y-131364800D01*
X140578708Y-131535167D01*
X140628402Y-131698987D01*
X140709101Y-131849964D01*
X140817703Y-131982297D01*
X140950036Y-132090899D01*
X141101013Y-132171598D01*
X141145507Y-132185095D01*
X141085241Y-132225363D01*
X140885363Y-132425241D01*
X140728320Y-132660273D01*
X140620147Y-132921426D01*
X140565000Y-133198665D01*
X140565000Y-133481335D01*
X140620147Y-133758574D01*
X140728320Y-134019727D01*
X140885363Y-134254759D01*
X141085241Y-134454637D01*
X141317759Y-134610000D01*
X141085241Y-134765363D01*
X140885363Y-134965241D01*
X140728320Y-135200273D01*
X140620147Y-135461426D01*
X140565000Y-135738665D01*
X140565000Y-136021335D01*
X140620147Y-136298574D01*
X140728320Y-136559727D01*
X140885363Y-136794759D01*
X141085241Y-136994637D01*
X141320273Y-137151680D01*
X141581426Y-137259853D01*
X141858665Y-137315000D01*
X142141335Y-137315000D01*
X142418574Y-137259853D01*
X142679727Y-137151680D01*
X142914759Y-136994637D01*
X143036694Y-136872702D01*
X143726903Y-136872702D01*
X143798486Y-137116671D01*
X144053996Y-137237571D01*
X144328184Y-137306300D01*
X144610512Y-137320217D01*
X144890130Y-137278787D01*
X145156292Y-137183603D01*
X145281514Y-137116671D01*
X145353097Y-136872702D01*
X144540000Y-136059605D01*
X143726903Y-136872702D01*
X143036694Y-136872702D01*
X143114637Y-136794759D01*
X143270915Y-136560872D01*
X143303329Y-136621514D01*
X143547298Y-136693097D01*
X144360395Y-135880000D01*
X144719605Y-135880000D01*
X145532702Y-136693097D01*
X145776671Y-136621514D01*
X145897571Y-136366004D01*
X145966300Y-136091816D01*
X145980217Y-135809488D01*
X145938787Y-135529870D01*
X145843603Y-135263708D01*
X145776671Y-135138486D01*
X145532702Y-135066903D01*
X144719605Y-135880000D01*
X144360395Y-135880000D01*
X143547298Y-135066903D01*
X143303329Y-135138486D01*
X143272806Y-135202992D01*
X143271680Y-135200273D01*
X143114637Y-134965241D01*
X142914759Y-134765363D01*
X142682241Y-134610000D01*
X142914759Y-134454637D01*
X143114637Y-134254759D01*
X143270000Y-134022241D01*
X143425363Y-134254759D01*
X143625241Y-134454637D01*
X143859128Y-134610915D01*
X143798486Y-134643329D01*
X143726903Y-134887298D01*
X144540000Y-135700395D01*
X145353097Y-134887298D01*
X145281514Y-134643329D01*
X145217008Y-134612806D01*
X145219727Y-134611680D01*
X145454759Y-134454637D01*
X145654637Y-134254759D01*
X145707930Y-134175000D01*
X145718982Y-134175000D01*
X145760000Y-134179040D01*
X145801018Y-134175000D01*
X145801019Y-134175000D01*
X145923689Y-134162918D01*
X146081087Y-134115172D01*
X146226146Y-134037636D01*
X146353291Y-133933291D01*
X146379445Y-133901422D01*
X147511438Y-132769431D01*
X147543292Y-132743289D01*
X147569433Y-132711436D01*
X147569440Y-132711429D01*
X147647637Y-132616144D01*
X147725173Y-132471086D01*
X147772919Y-132313687D01*
X147789041Y-132149999D01*
X147785001Y-132108980D01*
X147785001Y-131100000D01*
X148236928Y-131100000D01*
X148249188Y-131224482D01*
X148285498Y-131344180D01*
X148342061Y-131450000D01*
X148285498Y-131555820D01*
X148249188Y-131675518D01*
X148236928Y-131800000D01*
X148240000Y-132214250D01*
X148398750Y-132373000D01*
X149323000Y-132373000D01*
X149323000Y-130527000D01*
X148398750Y-130527000D01*
X148240000Y-130685750D01*
X148236928Y-131100000D01*
X147785001Y-131100000D01*
X147784999Y-129936002D01*
X147785000Y-129935993D01*
X147785000Y-129923287D01*
X147822896Y-129866572D01*
X147897147Y-129687314D01*
X147935000Y-129497014D01*
X147935000Y-129302986D01*
X147911531Y-129185000D01*
X148380386Y-129185000D01*
X148411595Y-129243387D01*
X148419932Y-129253546D01*
X148344463Y-129345506D01*
X148285498Y-129455820D01*
X148249188Y-129575518D01*
X148236928Y-129700000D01*
X148240000Y-130114250D01*
X148398750Y-130273000D01*
X149323000Y-130273000D01*
X149323000Y-130253000D01*
X149577000Y-130253000D01*
X149577000Y-130273000D01*
X149597000Y-130273000D01*
X149597000Y-130527000D01*
X149577000Y-130527000D01*
X149577000Y-132373000D01*
X149597000Y-132373000D01*
X149597000Y-132627000D01*
X149577000Y-132627000D01*
X149577000Y-132647000D01*
X149323000Y-132647000D01*
X149323000Y-132627000D01*
X148398750Y-132627000D01*
X148240000Y-132785750D01*
X148236928Y-133200000D01*
X148249188Y-133324482D01*
X148285498Y-133444180D01*
X148344463Y-133554494D01*
X148419932Y-133646454D01*
X148411595Y-133656613D01*
X148329528Y-133810149D01*
X148278992Y-133976745D01*
X148261928Y-134149999D01*
X148261928Y-135050001D01*
X148278992Y-135223255D01*
X148329528Y-135389851D01*
X148411595Y-135543387D01*
X148522038Y-135677962D01*
X148548891Y-135700000D01*
X148522038Y-135722038D01*
X148411595Y-135856613D01*
X148353661Y-135965000D01*
X148323287Y-135965000D01*
X148266572Y-135927104D01*
X148087314Y-135852853D01*
X147897014Y-135815000D01*
X147702986Y-135815000D01*
X147512686Y-135852853D01*
X147333428Y-135927104D01*
X147172099Y-136034901D01*
X147034901Y-136172099D01*
X146927104Y-136333428D01*
X146852853Y-136512686D01*
X146815000Y-136702986D01*
X146815000Y-136897014D01*
X146852853Y-137087314D01*
X146927104Y-137266572D01*
X147034901Y-137427901D01*
X147172099Y-137565099D01*
X147333428Y-137672896D01*
X147512686Y-137747147D01*
X147702986Y-137785000D01*
X147897014Y-137785000D01*
X148087314Y-137747147D01*
X148266572Y-137672896D01*
X148323287Y-137635000D01*
X148353661Y-137635000D01*
X148411595Y-137743387D01*
X148522038Y-137877962D01*
X148656613Y-137988405D01*
X148810149Y-138070472D01*
X148976745Y-138121008D01*
X149149999Y-138138072D01*
X149850001Y-138138072D01*
X150023255Y-138121008D01*
X150189851Y-138070472D01*
X150343387Y-137988405D01*
X150477962Y-137877962D01*
X150500000Y-137851109D01*
X150522038Y-137877962D01*
X150656613Y-137988405D01*
X150810149Y-138070472D01*
X150976745Y-138121008D01*
X151149999Y-138138072D01*
X151850001Y-138138072D01*
X152023255Y-138121008D01*
X152189851Y-138070472D01*
X152343387Y-137988405D01*
X152477962Y-137877962D01*
X152588405Y-137743387D01*
X152646339Y-137635000D01*
X153558982Y-137635000D01*
X153600000Y-137639040D01*
X153641018Y-137635000D01*
X153641019Y-137635000D01*
X153763689Y-137622918D01*
X153921087Y-137575172D01*
X154066146Y-137497636D01*
X154193291Y-137393291D01*
X154219446Y-137361421D01*
X155339856Y-136241011D01*
X155408854Y-136297636D01*
X155553913Y-136375172D01*
X155711311Y-136422918D01*
X155730704Y-136424828D01*
X155875000Y-136439040D01*
X155916018Y-136435000D01*
X161883982Y-136435000D01*
X161925000Y-136439040D01*
X161966018Y-136435000D01*
X161966019Y-136435000D01*
X162088689Y-136422918D01*
X162246087Y-136375172D01*
X162391146Y-136297636D01*
X162518291Y-136193291D01*
X162544445Y-136161422D01*
X162767796Y-135938072D01*
X163650000Y-135938072D01*
X163774482Y-135925812D01*
X163894180Y-135889502D01*
X164004494Y-135830537D01*
X164101185Y-135751185D01*
X164180537Y-135654494D01*
X164239502Y-135544180D01*
X164259234Y-135479132D01*
X164349999Y-135488072D01*
X165250001Y-135488072D01*
X165423255Y-135471008D01*
X165589851Y-135420472D01*
X165743387Y-135338405D01*
X165877962Y-135227962D01*
X165988405Y-135093387D01*
X166070472Y-134939851D01*
X166120479Y-134775000D01*
X166194133Y-134775000D01*
X166944996Y-135525863D01*
X166830820Y-135560498D01*
X166720506Y-135619463D01*
X166623815Y-135698815D01*
X166544463Y-135795506D01*
X166485498Y-135905820D01*
X166449188Y-136025518D01*
X166436928Y-136150000D01*
X166436928Y-138250000D01*
X166449188Y-138374482D01*
X166485498Y-138494180D01*
X166544463Y-138604494D01*
X166623815Y-138701185D01*
X166720506Y-138780537D01*
X166830820Y-138839502D01*
X166950518Y-138875812D01*
X167075000Y-138888072D01*
X167441328Y-138888072D01*
X167429528Y-138910149D01*
X167378992Y-139076745D01*
X167361928Y-139249999D01*
X167361928Y-140150001D01*
X167378992Y-140323255D01*
X167429528Y-140489851D01*
X167511595Y-140643387D01*
X167622038Y-140777962D01*
X167756613Y-140888405D01*
X167910149Y-140970472D01*
X168076745Y-141021008D01*
X168249999Y-141038072D01*
X168950001Y-141038072D01*
X169123255Y-141021008D01*
X169289851Y-140970472D01*
X169443387Y-140888405D01*
X169524637Y-140821724D01*
X169548815Y-140851185D01*
X169645506Y-140930537D01*
X169755820Y-140989502D01*
X169875518Y-141025812D01*
X170000000Y-141038072D01*
X170314250Y-141035000D01*
X170473000Y-140876250D01*
X170473000Y-139827000D01*
X170727000Y-139827000D01*
X170727000Y-140876250D01*
X170885750Y-141035000D01*
X171200000Y-141038072D01*
X171324482Y-141025812D01*
X171444180Y-140989502D01*
X171554494Y-140930537D01*
X171651185Y-140851185D01*
X171730537Y-140754494D01*
X171789502Y-140644180D01*
X171825812Y-140524482D01*
X171838072Y-140400000D01*
X171835000Y-139985750D01*
X171676250Y-139827000D01*
X170727000Y-139827000D01*
X170473000Y-139827000D01*
X170453000Y-139827000D01*
X170453000Y-139573000D01*
X170473000Y-139573000D01*
X170473000Y-139553000D01*
X170727000Y-139553000D01*
X170727000Y-139573000D01*
X171676250Y-139573000D01*
X171835000Y-139414250D01*
X171838072Y-139000000D01*
X171825812Y-138875518D01*
X171789502Y-138755820D01*
X171748907Y-138679872D01*
X172565000Y-138679872D01*
X172565000Y-139120128D01*
X172650890Y-139551925D01*
X172819369Y-139958669D01*
X173063962Y-140324729D01*
X173375271Y-140636038D01*
X173741331Y-140880631D01*
X174148075Y-141049110D01*
X174579872Y-141135000D01*
X175020128Y-141135000D01*
X175451925Y-141049110D01*
X175858669Y-140880631D01*
X176224729Y-140636038D01*
X176536038Y-140324729D01*
X176780631Y-139958669D01*
X176949110Y-139551925D01*
X177035000Y-139120128D01*
X177035000Y-138679872D01*
X176949110Y-138248075D01*
X176780631Y-137841331D01*
X176536038Y-137475271D01*
X176224729Y-137163962D01*
X175858669Y-136919369D01*
X175451925Y-136750890D01*
X175020128Y-136665000D01*
X174579872Y-136665000D01*
X174148075Y-136750890D01*
X173741331Y-136919369D01*
X173375271Y-137163962D01*
X173063962Y-137475271D01*
X172819369Y-137841331D01*
X172650890Y-138248075D01*
X172565000Y-138679872D01*
X171748907Y-138679872D01*
X171730537Y-138645506D01*
X171651185Y-138548815D01*
X171633192Y-138534048D01*
X171654502Y-138494180D01*
X171690812Y-138374482D01*
X171703072Y-138250000D01*
X171700000Y-137485750D01*
X171541250Y-137327000D01*
X170467000Y-137327000D01*
X170467000Y-137347000D01*
X170213000Y-137347000D01*
X170213000Y-137327000D01*
X170193000Y-137327000D01*
X170193000Y-137073000D01*
X170213000Y-137073000D01*
X170213000Y-135673750D01*
X170467000Y-135673750D01*
X170467000Y-137073000D01*
X171541250Y-137073000D01*
X171700000Y-136914250D01*
X171703072Y-136150000D01*
X171690812Y-136025518D01*
X171654502Y-135905820D01*
X171595537Y-135795506D01*
X171516185Y-135698815D01*
X171419494Y-135619463D01*
X171309180Y-135560498D01*
X171189482Y-135524188D01*
X171065000Y-135511928D01*
X170625750Y-135515000D01*
X170467000Y-135673750D01*
X170213000Y-135673750D01*
X170054250Y-135515000D01*
X169615000Y-135511928D01*
X169490518Y-135524188D01*
X169370820Y-135560498D01*
X169260506Y-135619463D01*
X169163815Y-135698815D01*
X169085000Y-135794852D01*
X169085000Y-135691018D01*
X169089040Y-135649999D01*
X169072918Y-135486311D01*
X169025172Y-135328913D01*
X168947636Y-135183854D01*
X168923065Y-135153914D01*
X168843291Y-135056709D01*
X168811426Y-135030559D01*
X167159446Y-133378579D01*
X167133291Y-133346709D01*
X167006146Y-133242364D01*
X166861087Y-133164828D01*
X166703689Y-133117082D01*
X166581019Y-133105000D01*
X166581018Y-133105000D01*
X166540000Y-133100960D01*
X166498982Y-133105000D01*
X165978874Y-133105000D01*
X165988405Y-133093387D01*
X166070472Y-132939851D01*
X166121008Y-132773255D01*
X166138072Y-132600001D01*
X166138072Y-131899999D01*
X166121008Y-131726745D01*
X166070472Y-131560149D01*
X166028104Y-131480884D01*
X166080537Y-131416994D01*
X166139502Y-131306680D01*
X166175812Y-131186982D01*
X166188072Y-131062500D01*
X166185000Y-130760750D01*
X166124250Y-130700000D01*
X171961928Y-130700000D01*
X171974188Y-130824482D01*
X172010498Y-130944180D01*
X172069463Y-131054494D01*
X172148815Y-131151185D01*
X172245506Y-131230537D01*
X172355820Y-131289502D01*
X172475518Y-131325812D01*
X172600000Y-131338072D01*
X173014250Y-131335000D01*
X173173000Y-131176250D01*
X173173000Y-130227000D01*
X173427000Y-130227000D01*
X173427000Y-131176250D01*
X173585750Y-131335000D01*
X174000000Y-131338072D01*
X174124482Y-131325812D01*
X174244180Y-131289502D01*
X174354494Y-131230537D01*
X174451185Y-131151185D01*
X174530537Y-131054494D01*
X174589502Y-130944180D01*
X174625812Y-130824482D01*
X174638072Y-130700000D01*
X174635000Y-130385750D01*
X174476250Y-130227000D01*
X173427000Y-130227000D01*
X173173000Y-130227000D01*
X172123750Y-130227000D01*
X171965000Y-130385750D01*
X171961928Y-130700000D01*
X166124250Y-130700000D01*
X166026250Y-130602000D01*
X164952000Y-130602000D01*
X164952000Y-130622000D01*
X164698000Y-130622000D01*
X164698000Y-130602000D01*
X164678000Y-130602000D01*
X164678000Y-130348000D01*
X164698000Y-130348000D01*
X164698000Y-130328000D01*
X164952000Y-130328000D01*
X164952000Y-130348000D01*
X166026250Y-130348000D01*
X166139057Y-130235193D01*
X166141018Y-130235000D01*
X166141019Y-130235000D01*
X166263689Y-130222918D01*
X166421087Y-130175172D01*
X166566146Y-130097636D01*
X166693291Y-129993291D01*
X166719446Y-129961421D01*
X166915636Y-129765231D01*
X166950518Y-129775812D01*
X167075000Y-129788072D01*
X168525000Y-129788072D01*
X168649482Y-129775812D01*
X168769180Y-129739502D01*
X168879494Y-129680537D01*
X168976185Y-129601185D01*
X169055537Y-129504494D01*
X169070000Y-129477436D01*
X169084463Y-129504494D01*
X169163815Y-129601185D01*
X169260506Y-129680537D01*
X169370820Y-129739502D01*
X169490518Y-129775812D01*
X169615000Y-129788072D01*
X171065000Y-129788072D01*
X171189482Y-129775812D01*
X171309180Y-129739502D01*
X171419494Y-129680537D01*
X171516185Y-129601185D01*
X171595537Y-129504494D01*
X171654502Y-129394180D01*
X171690812Y-129274482D01*
X171703072Y-129150000D01*
X171703072Y-128985000D01*
X172145746Y-128985000D01*
X172178276Y-129024637D01*
X172148815Y-129048815D01*
X172069463Y-129145506D01*
X172010498Y-129255820D01*
X171974188Y-129375518D01*
X171961928Y-129500000D01*
X171965000Y-129814250D01*
X172123750Y-129973000D01*
X173173000Y-129973000D01*
X173173000Y-129953000D01*
X173427000Y-129953000D01*
X173427000Y-129973000D01*
X174476250Y-129973000D01*
X174635000Y-129814250D01*
X174638072Y-129500000D01*
X174625812Y-129375518D01*
X174589502Y-129255820D01*
X174530537Y-129145506D01*
X174451185Y-129048815D01*
X174421724Y-129024637D01*
X174488405Y-128943387D01*
X174570472Y-128789851D01*
X174621008Y-128623255D01*
X174638072Y-128450001D01*
X174638072Y-127749999D01*
X174621008Y-127576745D01*
X174570472Y-127410149D01*
X174488405Y-127256613D01*
X174377962Y-127122038D01*
X174243387Y-127011595D01*
X174089851Y-126929528D01*
X173923255Y-126878992D01*
X173750001Y-126861928D01*
X172849999Y-126861928D01*
X172676745Y-126878992D01*
X172510149Y-126929528D01*
X172356613Y-127011595D01*
X172222038Y-127122038D01*
X172145746Y-127215000D01*
X171703072Y-127215000D01*
X171703072Y-127050000D01*
X171690812Y-126925518D01*
X171654502Y-126805820D01*
X171595537Y-126695506D01*
X171516185Y-126598815D01*
X171419494Y-126519463D01*
X171375000Y-126495680D01*
X171375000Y-124472674D01*
X171445506Y-124530537D01*
X171555820Y-124589502D01*
X171675518Y-124625812D01*
X171800000Y-124638072D01*
X172314250Y-124635000D01*
X172473000Y-124476250D01*
X172473000Y-123327000D01*
X172727000Y-123327000D01*
X172727000Y-124476250D01*
X172885750Y-124635000D01*
X173400000Y-124638072D01*
X173524482Y-124625812D01*
X173644180Y-124589502D01*
X173754494Y-124530537D01*
X173851185Y-124451185D01*
X173930537Y-124354494D01*
X173989502Y-124244180D01*
X174025812Y-124124482D01*
X174038072Y-124000000D01*
X174035000Y-123485750D01*
X173876250Y-123327000D01*
X172727000Y-123327000D01*
X172473000Y-123327000D01*
X172453000Y-123327000D01*
X172453000Y-123073000D01*
X172473000Y-123073000D01*
X172473000Y-121923750D01*
X172727000Y-121923750D01*
X172727000Y-123073000D01*
X173876250Y-123073000D01*
X174035000Y-122914250D01*
X174038072Y-122400000D01*
X174025812Y-122275518D01*
X173989502Y-122155820D01*
X173930537Y-122045506D01*
X173851185Y-121948815D01*
X173754494Y-121869463D01*
X173644180Y-121810498D01*
X173524482Y-121774188D01*
X173400000Y-121761928D01*
X172885750Y-121765000D01*
X172727000Y-121923750D01*
X172473000Y-121923750D01*
X172314250Y-121765000D01*
X171800000Y-121761928D01*
X171675518Y-121774188D01*
X171555820Y-121810498D01*
X171445506Y-121869463D01*
X171348815Y-121948815D01*
X171269463Y-122045506D01*
X171210498Y-122155820D01*
X171181339Y-122251943D01*
X171014759Y-122085363D01*
X170779727Y-121928320D01*
X170518574Y-121820147D01*
X170241335Y-121765000D01*
X169958665Y-121765000D01*
X169681426Y-121820147D01*
X169420273Y-121928320D01*
X169185241Y-122085363D01*
X168985363Y-122285241D01*
X168850000Y-122487827D01*
X168714637Y-122285241D01*
X168514759Y-122085363D01*
X168279727Y-121928320D01*
X168018574Y-121820147D01*
X167741335Y-121765000D01*
X167458665Y-121765000D01*
X167181426Y-121820147D01*
X166920273Y-121928320D01*
X166685241Y-122085363D01*
X166485363Y-122285241D01*
X166350000Y-122487827D01*
X166214637Y-122285241D01*
X166014759Y-122085363D01*
X165985943Y-122066109D01*
X165985000Y-122056533D01*
X165985000Y-122056523D01*
X165972195Y-121926510D01*
X165921589Y-121759687D01*
X165839411Y-121605941D01*
X165812779Y-121573490D01*
X165756532Y-121504953D01*
X165756530Y-121504951D01*
X165728817Y-121471183D01*
X165695049Y-121443470D01*
X165056534Y-120804956D01*
X165028817Y-120771183D01*
X164894059Y-120660589D01*
X164740313Y-120578411D01*
X164573490Y-120527805D01*
X164443477Y-120515000D01*
X164443469Y-120515000D01*
X164400000Y-120510719D01*
X164356531Y-120515000D01*
X154843465Y-120515000D01*
X154799999Y-120510719D01*
X154756533Y-120515000D01*
X154756523Y-120515000D01*
X154626510Y-120527805D01*
X154459687Y-120578411D01*
X154305941Y-120660589D01*
X154305939Y-120660590D01*
X154305940Y-120660590D01*
X154204953Y-120743468D01*
X154204951Y-120743470D01*
X154171183Y-120771183D01*
X154143470Y-120804951D01*
X153504951Y-121443471D01*
X153471184Y-121471183D01*
X153443471Y-121504951D01*
X153443468Y-121504954D01*
X153360590Y-121605941D01*
X153278412Y-121759687D01*
X153227805Y-121926510D01*
X153214057Y-122066109D01*
X153185241Y-122085363D01*
X152985363Y-122285241D01*
X152851308Y-122485869D01*
X152836671Y-122458486D01*
X152592702Y-122386903D01*
X151779605Y-123200000D01*
X152592702Y-124013097D01*
X152836671Y-123941514D01*
X152850324Y-123912659D01*
X152985363Y-124114759D01*
X153185241Y-124314637D01*
X153420273Y-124471680D01*
X153681426Y-124579853D01*
X153958665Y-124635000D01*
X154241335Y-124635000D01*
X154518574Y-124579853D01*
X154779727Y-124471680D01*
X155014759Y-124314637D01*
X155181339Y-124148057D01*
X155210498Y-124244180D01*
X155269463Y-124354494D01*
X155348815Y-124451185D01*
X155445506Y-124530537D01*
X155555820Y-124589502D01*
X155634923Y-124613498D01*
X154933422Y-125315000D01*
X150543469Y-125315000D01*
X150500000Y-125310719D01*
X150456531Y-125315000D01*
X150456523Y-125315000D01*
X150326510Y-125327805D01*
X150159686Y-125378411D01*
X150005941Y-125460589D01*
X149904953Y-125543468D01*
X149904951Y-125543470D01*
X149871183Y-125571183D01*
X149843470Y-125604951D01*
X148904956Y-126543466D01*
X148871183Y-126571183D01*
X148760589Y-126705942D01*
X148678411Y-126859688D01*
X148627805Y-127026511D01*
X148616155Y-127144798D01*
X148522038Y-127222038D01*
X148411595Y-127356613D01*
X148380386Y-127415000D01*
X146143465Y-127415000D01*
X146099999Y-127410719D01*
X146056533Y-127415000D01*
X146056523Y-127415000D01*
X145926510Y-127427805D01*
X145759687Y-127478411D01*
X145605941Y-127560589D01*
X145605939Y-127560590D01*
X145605940Y-127560590D01*
X145504953Y-127643468D01*
X145504951Y-127643470D01*
X145471183Y-127671183D01*
X145443470Y-127704951D01*
X143944956Y-129203466D01*
X143911183Y-129231183D01*
X143800589Y-129365942D01*
X143718411Y-129519688D01*
X143679062Y-129649401D01*
X143625241Y-129685363D01*
X143425363Y-129885241D01*
X143385095Y-129945507D01*
X143371598Y-129901013D01*
X143290899Y-129750036D01*
X143182297Y-129617703D01*
X143049964Y-129509101D01*
X142898987Y-129428402D01*
X142735167Y-129378708D01*
X142564800Y-129361928D01*
X141435200Y-129361928D01*
X141264833Y-129378708D01*
X141101013Y-129428402D01*
X140950036Y-129509101D01*
X140817703Y-129617703D01*
X140709101Y-129750036D01*
X140628402Y-129901013D01*
X140578708Y-130064833D01*
X140561928Y-130235200D01*
X138660000Y-130235200D01*
X138660000Y-121879872D01*
X138865000Y-121879872D01*
X138865000Y-122320128D01*
X138950890Y-122751925D01*
X139119369Y-123158669D01*
X139363962Y-123524729D01*
X139675271Y-123836038D01*
X140041331Y-124080631D01*
X140448075Y-124249110D01*
X140879872Y-124335000D01*
X141320128Y-124335000D01*
X141751925Y-124249110D01*
X141888105Y-124192702D01*
X150786903Y-124192702D01*
X150858486Y-124436671D01*
X151113996Y-124557571D01*
X151388184Y-124626300D01*
X151670512Y-124640217D01*
X151950130Y-124598787D01*
X152216292Y-124503603D01*
X152341514Y-124436671D01*
X152413097Y-124192702D01*
X151600000Y-123379605D01*
X150786903Y-124192702D01*
X141888105Y-124192702D01*
X142158669Y-124080631D01*
X142524729Y-123836038D01*
X142836038Y-123524729D01*
X143005900Y-123270512D01*
X150159783Y-123270512D01*
X150201213Y-123550130D01*
X150296397Y-123816292D01*
X150363329Y-123941514D01*
X150607298Y-124013097D01*
X151420395Y-123200000D01*
X150607298Y-122386903D01*
X150363329Y-122458486D01*
X150242429Y-122713996D01*
X150173700Y-122988184D01*
X150159783Y-123270512D01*
X143005900Y-123270512D01*
X143080631Y-123158669D01*
X143249110Y-122751925D01*
X143335000Y-122320128D01*
X143335000Y-122207298D01*
X150786903Y-122207298D01*
X151600000Y-123020395D01*
X152413097Y-122207298D01*
X152341514Y-121963329D01*
X152086004Y-121842429D01*
X151811816Y-121773700D01*
X151529488Y-121759783D01*
X151249870Y-121801213D01*
X150983708Y-121896397D01*
X150858486Y-121963329D01*
X150786903Y-122207298D01*
X143335000Y-122207298D01*
X143335000Y-121879872D01*
X143249110Y-121448075D01*
X143080631Y-121041331D01*
X142836038Y-120675271D01*
X142524729Y-120363962D01*
X142158669Y-120119369D01*
X141751925Y-119950890D01*
X141320128Y-119865000D01*
X140879872Y-119865000D01*
X140448075Y-119950890D01*
X140041331Y-120119369D01*
X139675271Y-120363962D01*
X139363962Y-120675271D01*
X139119369Y-121041331D01*
X138950890Y-121448075D01*
X138865000Y-121879872D01*
X138660000Y-121879872D01*
X138660000Y-119660000D01*
X177340001Y-119660000D01*
X177340000Y-141340000D01*
%TA.AperFunction,Conductor*%
D20*
G36*
X177340000Y-141340000D02*
G01*
X138660000Y-141340000D01*
X138660000Y-139800000D01*
X153511928Y-139800000D01*
X153524188Y-139924482D01*
X153560498Y-140044180D01*
X153619463Y-140154494D01*
X153698815Y-140251185D01*
X153795506Y-140330537D01*
X153905820Y-140389502D01*
X154025518Y-140425812D01*
X154150000Y-140438072D01*
X154639250Y-140435000D01*
X154798000Y-140276250D01*
X154798000Y-139277000D01*
X155052000Y-139277000D01*
X155052000Y-140276250D01*
X155210750Y-140435000D01*
X155700000Y-140438072D01*
X155824482Y-140425812D01*
X155944180Y-140389502D01*
X156054494Y-140330537D01*
X156151185Y-140251185D01*
X156230537Y-140154494D01*
X156289502Y-140044180D01*
X156325812Y-139924482D01*
X156338072Y-139800000D01*
X161461928Y-139800000D01*
X161474188Y-139924482D01*
X161510498Y-140044180D01*
X161569463Y-140154494D01*
X161648815Y-140251185D01*
X161745506Y-140330537D01*
X161855820Y-140389502D01*
X161975518Y-140425812D01*
X162100000Y-140438072D01*
X162589250Y-140435000D01*
X162748000Y-140276250D01*
X162748000Y-139277000D01*
X163002000Y-139277000D01*
X163002000Y-140276250D01*
X163160750Y-140435000D01*
X163650000Y-140438072D01*
X163774482Y-140425812D01*
X163894180Y-140389502D01*
X164004494Y-140330537D01*
X164101185Y-140251185D01*
X164180537Y-140154494D01*
X164239502Y-140044180D01*
X164275812Y-139924482D01*
X164288072Y-139800000D01*
X164285000Y-139435750D01*
X164126250Y-139277000D01*
X163002000Y-139277000D01*
X162748000Y-139277000D01*
X161623750Y-139277000D01*
X161465000Y-139435750D01*
X161461928Y-139800000D01*
X156338072Y-139800000D01*
X156335000Y-139435750D01*
X156176250Y-139277000D01*
X155052000Y-139277000D01*
X154798000Y-139277000D01*
X153673750Y-139277000D01*
X153515000Y-139435750D01*
X153511928Y-139800000D01*
X138660000Y-139800000D01*
X138660000Y-138500000D01*
X153511928Y-138500000D01*
X153515000Y-138864250D01*
X153673750Y-139023000D01*
X154798000Y-139023000D01*
X154798000Y-138023750D01*
X155052000Y-138023750D01*
X155052000Y-139023000D01*
X156176250Y-139023000D01*
X156335000Y-138864250D01*
X156338072Y-138500000D01*
X161461928Y-138500000D01*
X161465000Y-138864250D01*
X161623750Y-139023000D01*
X162748000Y-139023000D01*
X162748000Y-138023750D01*
X163002000Y-138023750D01*
X163002000Y-139023000D01*
X164126250Y-139023000D01*
X164285000Y-138864250D01*
X164288072Y-138500000D01*
X164275812Y-138375518D01*
X164239502Y-138255820D01*
X164180537Y-138145506D01*
X164101185Y-138048815D01*
X164004494Y-137969463D01*
X163894180Y-137910498D01*
X163774482Y-137874188D01*
X163650000Y-137861928D01*
X163160750Y-137865000D01*
X163002000Y-138023750D01*
X162748000Y-138023750D01*
X162589250Y-137865000D01*
X162100000Y-137861928D01*
X161975518Y-137874188D01*
X161855820Y-137910498D01*
X161745506Y-137969463D01*
X161648815Y-138048815D01*
X161569463Y-138145506D01*
X161510498Y-138255820D01*
X161474188Y-138375518D01*
X161461928Y-138500000D01*
X156338072Y-138500000D01*
X156325812Y-138375518D01*
X156289502Y-138255820D01*
X156230537Y-138145506D01*
X156151185Y-138048815D01*
X156054494Y-137969463D01*
X155944180Y-137910498D01*
X155824482Y-137874188D01*
X155700000Y-137861928D01*
X155210750Y-137865000D01*
X155052000Y-138023750D01*
X154798000Y-138023750D01*
X154639250Y-137865000D01*
X154150000Y-137861928D01*
X154025518Y-137874188D01*
X153905820Y-137910498D01*
X153795506Y-137969463D01*
X153698815Y-138048815D01*
X153619463Y-138145506D01*
X153560498Y-138255820D01*
X153524188Y-138375518D01*
X153511928Y-138500000D01*
X138660000Y-138500000D01*
X138660000Y-130235200D01*
X140561928Y-130235200D01*
X140561928Y-131364800D01*
X140578708Y-131535167D01*
X140628402Y-131698987D01*
X140709101Y-131849964D01*
X140817703Y-131982297D01*
X140950036Y-132090899D01*
X141101013Y-132171598D01*
X141145507Y-132185095D01*
X141085241Y-132225363D01*
X140885363Y-132425241D01*
X140728320Y-132660273D01*
X140620147Y-132921426D01*
X140565000Y-133198665D01*
X140565000Y-133481335D01*
X140620147Y-133758574D01*
X140728320Y-134019727D01*
X140885363Y-134254759D01*
X141085241Y-134454637D01*
X141317759Y-134610000D01*
X141085241Y-134765363D01*
X140885363Y-134965241D01*
X140728320Y-135200273D01*
X140620147Y-135461426D01*
X140565000Y-135738665D01*
X140565000Y-136021335D01*
X140620147Y-136298574D01*
X140728320Y-136559727D01*
X140885363Y-136794759D01*
X141085241Y-136994637D01*
X141320273Y-137151680D01*
X141581426Y-137259853D01*
X141858665Y-137315000D01*
X142141335Y-137315000D01*
X142418574Y-137259853D01*
X142679727Y-137151680D01*
X142914759Y-136994637D01*
X143036694Y-136872702D01*
X143726903Y-136872702D01*
X143798486Y-137116671D01*
X144053996Y-137237571D01*
X144328184Y-137306300D01*
X144610512Y-137320217D01*
X144890130Y-137278787D01*
X145156292Y-137183603D01*
X145281514Y-137116671D01*
X145353097Y-136872702D01*
X144540000Y-136059605D01*
X143726903Y-136872702D01*
X143036694Y-136872702D01*
X143114637Y-136794759D01*
X143270915Y-136560872D01*
X143303329Y-136621514D01*
X143547298Y-136693097D01*
X144360395Y-135880000D01*
X144719605Y-135880000D01*
X145532702Y-136693097D01*
X145776671Y-136621514D01*
X145897571Y-136366004D01*
X145966300Y-136091816D01*
X145980217Y-135809488D01*
X145938787Y-135529870D01*
X145843603Y-135263708D01*
X145776671Y-135138486D01*
X145532702Y-135066903D01*
X144719605Y-135880000D01*
X144360395Y-135880000D01*
X143547298Y-135066903D01*
X143303329Y-135138486D01*
X143272806Y-135202992D01*
X143271680Y-135200273D01*
X143114637Y-134965241D01*
X142914759Y-134765363D01*
X142682241Y-134610000D01*
X142914759Y-134454637D01*
X143114637Y-134254759D01*
X143270000Y-134022241D01*
X143425363Y-134254759D01*
X143625241Y-134454637D01*
X143859128Y-134610915D01*
X143798486Y-134643329D01*
X143726903Y-134887298D01*
X144540000Y-135700395D01*
X145353097Y-134887298D01*
X145281514Y-134643329D01*
X145217008Y-134612806D01*
X145219727Y-134611680D01*
X145454759Y-134454637D01*
X145654637Y-134254759D01*
X145707930Y-134175000D01*
X145718982Y-134175000D01*
X145760000Y-134179040D01*
X145801018Y-134175000D01*
X145801019Y-134175000D01*
X145923689Y-134162918D01*
X146081087Y-134115172D01*
X146226146Y-134037636D01*
X146353291Y-133933291D01*
X146379445Y-133901422D01*
X147511438Y-132769431D01*
X147543292Y-132743289D01*
X147569433Y-132711436D01*
X147569440Y-132711429D01*
X147647637Y-132616144D01*
X147725173Y-132471086D01*
X147772919Y-132313687D01*
X147789041Y-132149999D01*
X147785001Y-132108980D01*
X147785001Y-131100000D01*
X148236928Y-131100000D01*
X148249188Y-131224482D01*
X148285498Y-131344180D01*
X148342061Y-131450000D01*
X148285498Y-131555820D01*
X148249188Y-131675518D01*
X148236928Y-131800000D01*
X148240000Y-132214250D01*
X148398750Y-132373000D01*
X149323000Y-132373000D01*
X149323000Y-130527000D01*
X148398750Y-130527000D01*
X148240000Y-130685750D01*
X148236928Y-131100000D01*
X147785001Y-131100000D01*
X147784999Y-129936002D01*
X147785000Y-129935993D01*
X147785000Y-129923287D01*
X147822896Y-129866572D01*
X147897147Y-129687314D01*
X147935000Y-129497014D01*
X147935000Y-129302986D01*
X147911531Y-129185000D01*
X148380386Y-129185000D01*
X148411595Y-129243387D01*
X148419932Y-129253546D01*
X148344463Y-129345506D01*
X148285498Y-129455820D01*
X148249188Y-129575518D01*
X148236928Y-129700000D01*
X148240000Y-130114250D01*
X148398750Y-130273000D01*
X149323000Y-130273000D01*
X149323000Y-130253000D01*
X149577000Y-130253000D01*
X149577000Y-130273000D01*
X149597000Y-130273000D01*
X149597000Y-130527000D01*
X149577000Y-130527000D01*
X149577000Y-132373000D01*
X149597000Y-132373000D01*
X149597000Y-132627000D01*
X149577000Y-132627000D01*
X149577000Y-132647000D01*
X149323000Y-132647000D01*
X149323000Y-132627000D01*
X148398750Y-132627000D01*
X148240000Y-132785750D01*
X148236928Y-133200000D01*
X148249188Y-133324482D01*
X148285498Y-133444180D01*
X148344463Y-133554494D01*
X148419932Y-133646454D01*
X148411595Y-133656613D01*
X148329528Y-133810149D01*
X148278992Y-133976745D01*
X148261928Y-134149999D01*
X148261928Y-135050001D01*
X148278992Y-135223255D01*
X148329528Y-135389851D01*
X148411595Y-135543387D01*
X148522038Y-135677962D01*
X148548891Y-135700000D01*
X148522038Y-135722038D01*
X148411595Y-135856613D01*
X148353661Y-135965000D01*
X148323287Y-135965000D01*
X148266572Y-135927104D01*
X148087314Y-135852853D01*
X147897014Y-135815000D01*
X147702986Y-135815000D01*
X147512686Y-135852853D01*
X147333428Y-135927104D01*
X147172099Y-136034901D01*
X147034901Y-136172099D01*
X146927104Y-136333428D01*
X146852853Y-136512686D01*
X146815000Y-136702986D01*
X146815000Y-136897014D01*
X146852853Y-137087314D01*
X146927104Y-137266572D01*
X147034901Y-137427901D01*
X147172099Y-137565099D01*
X147333428Y-137672896D01*
X147512686Y-137747147D01*
X147702986Y-137785000D01*
X147897014Y-137785000D01*
X148087314Y-137747147D01*
X148266572Y-137672896D01*
X148323287Y-137635000D01*
X148353661Y-137635000D01*
X148411595Y-137743387D01*
X148522038Y-137877962D01*
X148656613Y-137988405D01*
X148810149Y-138070472D01*
X148976745Y-138121008D01*
X149149999Y-138138072D01*
X149850001Y-138138072D01*
X150023255Y-138121008D01*
X150189851Y-138070472D01*
X150343387Y-137988405D01*
X150477962Y-137877962D01*
X150500000Y-137851109D01*
X150522038Y-137877962D01*
X150656613Y-137988405D01*
X150810149Y-138070472D01*
X150976745Y-138121008D01*
X151149999Y-138138072D01*
X151850001Y-138138072D01*
X152023255Y-138121008D01*
X152189851Y-138070472D01*
X152343387Y-137988405D01*
X152477962Y-137877962D01*
X152588405Y-137743387D01*
X152646339Y-137635000D01*
X153558982Y-137635000D01*
X153600000Y-137639040D01*
X153641018Y-137635000D01*
X153641019Y-137635000D01*
X153763689Y-137622918D01*
X153921087Y-137575172D01*
X154066146Y-137497636D01*
X154193291Y-137393291D01*
X154219446Y-137361421D01*
X155339856Y-136241011D01*
X155408854Y-136297636D01*
X155553913Y-136375172D01*
X155711311Y-136422918D01*
X155730704Y-136424828D01*
X155875000Y-136439040D01*
X155916018Y-136435000D01*
X161883982Y-136435000D01*
X161925000Y-136439040D01*
X161966018Y-136435000D01*
X161966019Y-136435000D01*
X162088689Y-136422918D01*
X162246087Y-136375172D01*
X162391146Y-136297636D01*
X162518291Y-136193291D01*
X162544445Y-136161422D01*
X162767796Y-135938072D01*
X163650000Y-135938072D01*
X163774482Y-135925812D01*
X163894180Y-135889502D01*
X164004494Y-135830537D01*
X164101185Y-135751185D01*
X164180537Y-135654494D01*
X164239502Y-135544180D01*
X164259234Y-135479132D01*
X164349999Y-135488072D01*
X165250001Y-135488072D01*
X165423255Y-135471008D01*
X165589851Y-135420472D01*
X165743387Y-135338405D01*
X165877962Y-135227962D01*
X165988405Y-135093387D01*
X166070472Y-134939851D01*
X166120479Y-134775000D01*
X166194133Y-134775000D01*
X166944996Y-135525863D01*
X166830820Y-135560498D01*
X166720506Y-135619463D01*
X166623815Y-135698815D01*
X166544463Y-135795506D01*
X166485498Y-135905820D01*
X166449188Y-136025518D01*
X166436928Y-136150000D01*
X166436928Y-138250000D01*
X166449188Y-138374482D01*
X166485498Y-138494180D01*
X166544463Y-138604494D01*
X166623815Y-138701185D01*
X166720506Y-138780537D01*
X166830820Y-138839502D01*
X166950518Y-138875812D01*
X167075000Y-138888072D01*
X167441328Y-138888072D01*
X167429528Y-138910149D01*
X167378992Y-139076745D01*
X167361928Y-139249999D01*
X167361928Y-140150001D01*
X167378992Y-140323255D01*
X167429528Y-140489851D01*
X167511595Y-140643387D01*
X167622038Y-140777962D01*
X167756613Y-140888405D01*
X167910149Y-140970472D01*
X168076745Y-141021008D01*
X168249999Y-141038072D01*
X168950001Y-141038072D01*
X169123255Y-141021008D01*
X169289851Y-140970472D01*
X169443387Y-140888405D01*
X169524637Y-140821724D01*
X169548815Y-140851185D01*
X169645506Y-140930537D01*
X169755820Y-140989502D01*
X169875518Y-141025812D01*
X170000000Y-141038072D01*
X170314250Y-141035000D01*
X170473000Y-140876250D01*
X170473000Y-139827000D01*
X170727000Y-139827000D01*
X170727000Y-140876250D01*
X170885750Y-141035000D01*
X171200000Y-141038072D01*
X171324482Y-141025812D01*
X171444180Y-140989502D01*
X171554494Y-140930537D01*
X171651185Y-140851185D01*
X171730537Y-140754494D01*
X171789502Y-140644180D01*
X171825812Y-140524482D01*
X171838072Y-140400000D01*
X171835000Y-139985750D01*
X171676250Y-139827000D01*
X170727000Y-139827000D01*
X170473000Y-139827000D01*
X170453000Y-139827000D01*
X170453000Y-139573000D01*
X170473000Y-139573000D01*
X170473000Y-139553000D01*
X170727000Y-139553000D01*
X170727000Y-139573000D01*
X171676250Y-139573000D01*
X171835000Y-139414250D01*
X171838072Y-139000000D01*
X171825812Y-138875518D01*
X171789502Y-138755820D01*
X171748907Y-138679872D01*
X172565000Y-138679872D01*
X172565000Y-139120128D01*
X172650890Y-139551925D01*
X172819369Y-139958669D01*
X173063962Y-140324729D01*
X173375271Y-140636038D01*
X173741331Y-140880631D01*
X174148075Y-141049110D01*
X174579872Y-141135000D01*
X175020128Y-141135000D01*
X175451925Y-141049110D01*
X175858669Y-140880631D01*
X176224729Y-140636038D01*
X176536038Y-140324729D01*
X176780631Y-139958669D01*
X176949110Y-139551925D01*
X177035000Y-139120128D01*
X177035000Y-138679872D01*
X176949110Y-138248075D01*
X176780631Y-137841331D01*
X176536038Y-137475271D01*
X176224729Y-137163962D01*
X175858669Y-136919369D01*
X175451925Y-136750890D01*
X175020128Y-136665000D01*
X174579872Y-136665000D01*
X174148075Y-136750890D01*
X173741331Y-136919369D01*
X173375271Y-137163962D01*
X173063962Y-137475271D01*
X172819369Y-137841331D01*
X172650890Y-138248075D01*
X172565000Y-138679872D01*
X171748907Y-138679872D01*
X171730537Y-138645506D01*
X171651185Y-138548815D01*
X171633192Y-138534048D01*
X171654502Y-138494180D01*
X171690812Y-138374482D01*
X171703072Y-138250000D01*
X171700000Y-137485750D01*
X171541250Y-137327000D01*
X170467000Y-137327000D01*
X170467000Y-137347000D01*
X170213000Y-137347000D01*
X170213000Y-137327000D01*
X170193000Y-137327000D01*
X170193000Y-137073000D01*
X170213000Y-137073000D01*
X170213000Y-135673750D01*
X170467000Y-135673750D01*
X170467000Y-137073000D01*
X171541250Y-137073000D01*
X171700000Y-136914250D01*
X171703072Y-136150000D01*
X171690812Y-136025518D01*
X171654502Y-135905820D01*
X171595537Y-135795506D01*
X171516185Y-135698815D01*
X171419494Y-135619463D01*
X171309180Y-135560498D01*
X171189482Y-135524188D01*
X171065000Y-135511928D01*
X170625750Y-135515000D01*
X170467000Y-135673750D01*
X170213000Y-135673750D01*
X170054250Y-135515000D01*
X169615000Y-135511928D01*
X169490518Y-135524188D01*
X169370820Y-135560498D01*
X169260506Y-135619463D01*
X169163815Y-135698815D01*
X169085000Y-135794852D01*
X169085000Y-135691018D01*
X169089040Y-135649999D01*
X169072918Y-135486311D01*
X169025172Y-135328913D01*
X168947636Y-135183854D01*
X168923065Y-135153914D01*
X168843291Y-135056709D01*
X168811426Y-135030559D01*
X167159446Y-133378579D01*
X167133291Y-133346709D01*
X167006146Y-133242364D01*
X166861087Y-133164828D01*
X166703689Y-133117082D01*
X166581019Y-133105000D01*
X166581018Y-133105000D01*
X166540000Y-133100960D01*
X166498982Y-133105000D01*
X165978874Y-133105000D01*
X165988405Y-133093387D01*
X166070472Y-132939851D01*
X166121008Y-132773255D01*
X166138072Y-132600001D01*
X166138072Y-131899999D01*
X166121008Y-131726745D01*
X166070472Y-131560149D01*
X166028104Y-131480884D01*
X166080537Y-131416994D01*
X166139502Y-131306680D01*
X166175812Y-131186982D01*
X166188072Y-131062500D01*
X166185000Y-130760750D01*
X166124250Y-130700000D01*
X171961928Y-130700000D01*
X171974188Y-130824482D01*
X172010498Y-130944180D01*
X172069463Y-131054494D01*
X172148815Y-131151185D01*
X172245506Y-131230537D01*
X172355820Y-131289502D01*
X172475518Y-131325812D01*
X172600000Y-131338072D01*
X173014250Y-131335000D01*
X173173000Y-131176250D01*
X173173000Y-130227000D01*
X173427000Y-130227000D01*
X173427000Y-131176250D01*
X173585750Y-131335000D01*
X174000000Y-131338072D01*
X174124482Y-131325812D01*
X174244180Y-131289502D01*
X174354494Y-131230537D01*
X174451185Y-131151185D01*
X174530537Y-131054494D01*
X174589502Y-130944180D01*
X174625812Y-130824482D01*
X174638072Y-130700000D01*
X174635000Y-130385750D01*
X174476250Y-130227000D01*
X173427000Y-130227000D01*
X173173000Y-130227000D01*
X172123750Y-130227000D01*
X171965000Y-130385750D01*
X171961928Y-130700000D01*
X166124250Y-130700000D01*
X166026250Y-130602000D01*
X164952000Y-130602000D01*
X164952000Y-130622000D01*
X164698000Y-130622000D01*
X164698000Y-130602000D01*
X164678000Y-130602000D01*
X164678000Y-130348000D01*
X164698000Y-130348000D01*
X164698000Y-130328000D01*
X164952000Y-130328000D01*
X164952000Y-130348000D01*
X166026250Y-130348000D01*
X166139057Y-130235193D01*
X166141018Y-130235000D01*
X166141019Y-130235000D01*
X166263689Y-130222918D01*
X166421087Y-130175172D01*
X166566146Y-130097636D01*
X166693291Y-129993291D01*
X166719446Y-129961421D01*
X166915636Y-129765231D01*
X166950518Y-129775812D01*
X167075000Y-129788072D01*
X168525000Y-129788072D01*
X168649482Y-129775812D01*
X168769180Y-129739502D01*
X168879494Y-129680537D01*
X168976185Y-129601185D01*
X169055537Y-129504494D01*
X169070000Y-129477436D01*
X169084463Y-129504494D01*
X169163815Y-129601185D01*
X169260506Y-129680537D01*
X169370820Y-129739502D01*
X169490518Y-129775812D01*
X169615000Y-129788072D01*
X171065000Y-129788072D01*
X171189482Y-129775812D01*
X171309180Y-129739502D01*
X171419494Y-129680537D01*
X171516185Y-129601185D01*
X171595537Y-129504494D01*
X171654502Y-129394180D01*
X171690812Y-129274482D01*
X171703072Y-129150000D01*
X171703072Y-128985000D01*
X172145746Y-128985000D01*
X172178276Y-129024637D01*
X172148815Y-129048815D01*
X172069463Y-129145506D01*
X172010498Y-129255820D01*
X171974188Y-129375518D01*
X171961928Y-129500000D01*
X171965000Y-129814250D01*
X172123750Y-129973000D01*
X173173000Y-129973000D01*
X173173000Y-129953000D01*
X173427000Y-129953000D01*
X173427000Y-129973000D01*
X174476250Y-129973000D01*
X174635000Y-129814250D01*
X174638072Y-129500000D01*
X174625812Y-129375518D01*
X174589502Y-129255820D01*
X174530537Y-129145506D01*
X174451185Y-129048815D01*
X174421724Y-129024637D01*
X174488405Y-128943387D01*
X174570472Y-128789851D01*
X174621008Y-128623255D01*
X174638072Y-128450001D01*
X174638072Y-127749999D01*
X174621008Y-127576745D01*
X174570472Y-127410149D01*
X174488405Y-127256613D01*
X174377962Y-127122038D01*
X174243387Y-127011595D01*
X174089851Y-126929528D01*
X173923255Y-126878992D01*
X173750001Y-126861928D01*
X172849999Y-126861928D01*
X172676745Y-126878992D01*
X172510149Y-126929528D01*
X172356613Y-127011595D01*
X172222038Y-127122038D01*
X172145746Y-127215000D01*
X171703072Y-127215000D01*
X171703072Y-127050000D01*
X171690812Y-126925518D01*
X171654502Y-126805820D01*
X171595537Y-126695506D01*
X171516185Y-126598815D01*
X171419494Y-126519463D01*
X171375000Y-126495680D01*
X171375000Y-124472674D01*
X171445506Y-124530537D01*
X171555820Y-124589502D01*
X171675518Y-124625812D01*
X171800000Y-124638072D01*
X172314250Y-124635000D01*
X172473000Y-124476250D01*
X172473000Y-123327000D01*
X172727000Y-123327000D01*
X172727000Y-124476250D01*
X172885750Y-124635000D01*
X173400000Y-124638072D01*
X173524482Y-124625812D01*
X173644180Y-124589502D01*
X173754494Y-124530537D01*
X173851185Y-124451185D01*
X173930537Y-124354494D01*
X173989502Y-124244180D01*
X174025812Y-124124482D01*
X174038072Y-124000000D01*
X174035000Y-123485750D01*
X173876250Y-123327000D01*
X172727000Y-123327000D01*
X172473000Y-123327000D01*
X172453000Y-123327000D01*
X172453000Y-123073000D01*
X172473000Y-123073000D01*
X172473000Y-121923750D01*
X172727000Y-121923750D01*
X172727000Y-123073000D01*
X173876250Y-123073000D01*
X174035000Y-122914250D01*
X174038072Y-122400000D01*
X174025812Y-122275518D01*
X173989502Y-122155820D01*
X173930537Y-122045506D01*
X173851185Y-121948815D01*
X173754494Y-121869463D01*
X173644180Y-121810498D01*
X173524482Y-121774188D01*
X173400000Y-121761928D01*
X172885750Y-121765000D01*
X172727000Y-121923750D01*
X172473000Y-121923750D01*
X172314250Y-121765000D01*
X171800000Y-121761928D01*
X171675518Y-121774188D01*
X171555820Y-121810498D01*
X171445506Y-121869463D01*
X171348815Y-121948815D01*
X171269463Y-122045506D01*
X171210498Y-122155820D01*
X171181339Y-122251943D01*
X171014759Y-122085363D01*
X170779727Y-121928320D01*
X170518574Y-121820147D01*
X170241335Y-121765000D01*
X169958665Y-121765000D01*
X169681426Y-121820147D01*
X169420273Y-121928320D01*
X169185241Y-122085363D01*
X168985363Y-122285241D01*
X168850000Y-122487827D01*
X168714637Y-122285241D01*
X168514759Y-122085363D01*
X168279727Y-121928320D01*
X168018574Y-121820147D01*
X167741335Y-121765000D01*
X167458665Y-121765000D01*
X167181426Y-121820147D01*
X166920273Y-121928320D01*
X166685241Y-122085363D01*
X166485363Y-122285241D01*
X166350000Y-122487827D01*
X166214637Y-122285241D01*
X166014759Y-122085363D01*
X165985943Y-122066109D01*
X165985000Y-122056533D01*
X165985000Y-122056523D01*
X165972195Y-121926510D01*
X165921589Y-121759687D01*
X165839411Y-121605941D01*
X165812779Y-121573490D01*
X165756532Y-121504953D01*
X165756530Y-121504951D01*
X165728817Y-121471183D01*
X165695049Y-121443470D01*
X165056534Y-120804956D01*
X165028817Y-120771183D01*
X164894059Y-120660589D01*
X164740313Y-120578411D01*
X164573490Y-120527805D01*
X164443477Y-120515000D01*
X164443469Y-120515000D01*
X164400000Y-120510719D01*
X164356531Y-120515000D01*
X154843465Y-120515000D01*
X154799999Y-120510719D01*
X154756533Y-120515000D01*
X154756523Y-120515000D01*
X154626510Y-120527805D01*
X154459687Y-120578411D01*
X154305941Y-120660589D01*
X154305939Y-120660590D01*
X154305940Y-120660590D01*
X154204953Y-120743468D01*
X154204951Y-120743470D01*
X154171183Y-120771183D01*
X154143470Y-120804951D01*
X153504951Y-121443471D01*
X153471184Y-121471183D01*
X153443471Y-121504951D01*
X153443468Y-121504954D01*
X153360590Y-121605941D01*
X153278412Y-121759687D01*
X153227805Y-121926510D01*
X153214057Y-122066109D01*
X153185241Y-122085363D01*
X152985363Y-122285241D01*
X152851308Y-122485869D01*
X152836671Y-122458486D01*
X152592702Y-122386903D01*
X151779605Y-123200000D01*
X152592702Y-124013097D01*
X152836671Y-123941514D01*
X152850324Y-123912659D01*
X152985363Y-124114759D01*
X153185241Y-124314637D01*
X153420273Y-124471680D01*
X153681426Y-124579853D01*
X153958665Y-124635000D01*
X154241335Y-124635000D01*
X154518574Y-124579853D01*
X154779727Y-124471680D01*
X155014759Y-124314637D01*
X155181339Y-124148057D01*
X155210498Y-124244180D01*
X155269463Y-124354494D01*
X155348815Y-124451185D01*
X155445506Y-124530537D01*
X155555820Y-124589502D01*
X155634923Y-124613498D01*
X154933422Y-125315000D01*
X150543469Y-125315000D01*
X150500000Y-125310719D01*
X150456531Y-125315000D01*
X150456523Y-125315000D01*
X150326510Y-125327805D01*
X150159686Y-125378411D01*
X150005941Y-125460589D01*
X149904953Y-125543468D01*
X149904951Y-125543470D01*
X149871183Y-125571183D01*
X149843470Y-125604951D01*
X148904956Y-126543466D01*
X148871183Y-126571183D01*
X148760589Y-126705942D01*
X148678411Y-126859688D01*
X148627805Y-127026511D01*
X148616155Y-127144798D01*
X148522038Y-127222038D01*
X148411595Y-127356613D01*
X148380386Y-127415000D01*
X146143465Y-127415000D01*
X146099999Y-127410719D01*
X146056533Y-127415000D01*
X146056523Y-127415000D01*
X145926510Y-127427805D01*
X145759687Y-127478411D01*
X145605941Y-127560589D01*
X145605939Y-127560590D01*
X145605940Y-127560590D01*
X145504953Y-127643468D01*
X145504951Y-127643470D01*
X145471183Y-127671183D01*
X145443470Y-127704951D01*
X143944956Y-129203466D01*
X143911183Y-129231183D01*
X143800589Y-129365942D01*
X143718411Y-129519688D01*
X143679062Y-129649401D01*
X143625241Y-129685363D01*
X143425363Y-129885241D01*
X143385095Y-129945507D01*
X143371598Y-129901013D01*
X143290899Y-129750036D01*
X143182297Y-129617703D01*
X143049964Y-129509101D01*
X142898987Y-129428402D01*
X142735167Y-129378708D01*
X142564800Y-129361928D01*
X141435200Y-129361928D01*
X141264833Y-129378708D01*
X141101013Y-129428402D01*
X140950036Y-129509101D01*
X140817703Y-129617703D01*
X140709101Y-129750036D01*
X140628402Y-129901013D01*
X140578708Y-130064833D01*
X140561928Y-130235200D01*
X138660000Y-130235200D01*
X138660000Y-121879872D01*
X138865000Y-121879872D01*
X138865000Y-122320128D01*
X138950890Y-122751925D01*
X139119369Y-123158669D01*
X139363962Y-123524729D01*
X139675271Y-123836038D01*
X140041331Y-124080631D01*
X140448075Y-124249110D01*
X140879872Y-124335000D01*
X141320128Y-124335000D01*
X141751925Y-124249110D01*
X141888105Y-124192702D01*
X150786903Y-124192702D01*
X150858486Y-124436671D01*
X151113996Y-124557571D01*
X151388184Y-124626300D01*
X151670512Y-124640217D01*
X151950130Y-124598787D01*
X152216292Y-124503603D01*
X152341514Y-124436671D01*
X152413097Y-124192702D01*
X151600000Y-123379605D01*
X150786903Y-124192702D01*
X141888105Y-124192702D01*
X142158669Y-124080631D01*
X142524729Y-123836038D01*
X142836038Y-123524729D01*
X143005900Y-123270512D01*
X150159783Y-123270512D01*
X150201213Y-123550130D01*
X150296397Y-123816292D01*
X150363329Y-123941514D01*
X150607298Y-124013097D01*
X151420395Y-123200000D01*
X150607298Y-122386903D01*
X150363329Y-122458486D01*
X150242429Y-122713996D01*
X150173700Y-122988184D01*
X150159783Y-123270512D01*
X143005900Y-123270512D01*
X143080631Y-123158669D01*
X143249110Y-122751925D01*
X143335000Y-122320128D01*
X143335000Y-122207298D01*
X150786903Y-122207298D01*
X151600000Y-123020395D01*
X152413097Y-122207298D01*
X152341514Y-121963329D01*
X152086004Y-121842429D01*
X151811816Y-121773700D01*
X151529488Y-121759783D01*
X151249870Y-121801213D01*
X150983708Y-121896397D01*
X150858486Y-121963329D01*
X150786903Y-122207298D01*
X143335000Y-122207298D01*
X143335000Y-121879872D01*
X143249110Y-121448075D01*
X143080631Y-121041331D01*
X142836038Y-120675271D01*
X142524729Y-120363962D01*
X142158669Y-120119369D01*
X141751925Y-119950890D01*
X141320128Y-119865000D01*
X140879872Y-119865000D01*
X140448075Y-119950890D01*
X140041331Y-120119369D01*
X139675271Y-120363962D01*
X139363962Y-120675271D01*
X139119369Y-121041331D01*
X138950890Y-121448075D01*
X138865000Y-121879872D01*
X138660000Y-121879872D01*
X138660000Y-119660000D01*
X177340001Y-119660000D01*
X177340000Y-141340000D01*
G37*
%TD.AperFunction*%
D19*
X161485363Y-124114759D02*
X161685241Y-124314637D01*
X161765001Y-124367931D01*
X161765000Y-125941018D01*
X161765001Y-125941028D01*
X161765000Y-127166928D01*
X161750000Y-127166928D01*
X161625518Y-127179188D01*
X161505820Y-127215498D01*
X161395506Y-127274463D01*
X161298815Y-127353815D01*
X161219463Y-127450506D01*
X161160498Y-127560820D01*
X161124188Y-127680518D01*
X161111928Y-127805000D01*
X161111928Y-128455000D01*
X161122762Y-128565000D01*
X160823287Y-128565000D01*
X160766572Y-128527104D01*
X160587314Y-128452853D01*
X160397014Y-128415000D01*
X160202986Y-128415000D01*
X160012686Y-128452853D01*
X159833428Y-128527104D01*
X159672099Y-128634901D01*
X159534901Y-128772099D01*
X159427104Y-128933428D01*
X159352853Y-129112686D01*
X159315000Y-129302986D01*
X159315000Y-129497014D01*
X159352853Y-129687314D01*
X159427104Y-129866572D01*
X159534901Y-130027901D01*
X159542000Y-130035000D01*
X159534901Y-130042099D01*
X159427104Y-130203428D01*
X159352853Y-130382686D01*
X159315000Y-130572986D01*
X159315000Y-130767014D01*
X159352853Y-130957314D01*
X159427104Y-131136572D01*
X159534901Y-131297901D01*
X159542000Y-131305000D01*
X159534901Y-131312099D01*
X159427104Y-131473428D01*
X159352853Y-131652686D01*
X159315000Y-131842986D01*
X159315000Y-132037014D01*
X159352853Y-132227314D01*
X159427104Y-132406572D01*
X159534901Y-132567901D01*
X159672099Y-132705099D01*
X159833428Y-132812896D01*
X160012686Y-132887147D01*
X160202986Y-132925000D01*
X160397014Y-132925000D01*
X160587314Y-132887147D01*
X160766572Y-132812896D01*
X160823287Y-132775000D01*
X161370482Y-132775000D01*
X161395506Y-132795537D01*
X161505820Y-132854502D01*
X161625518Y-132890812D01*
X161750000Y-132903072D01*
X163450000Y-132903072D01*
X163516388Y-132896534D01*
X163529528Y-132939851D01*
X163611595Y-133093387D01*
X163722038Y-133227962D01*
X163748891Y-133250000D01*
X163722038Y-133272038D01*
X163648267Y-133361928D01*
X162100000Y-133361928D01*
X161975518Y-133374188D01*
X161855820Y-133410498D01*
X161745506Y-133469463D01*
X161648815Y-133548815D01*
X161569463Y-133645506D01*
X161510498Y-133755820D01*
X161474188Y-133875518D01*
X161461928Y-134000000D01*
X161461928Y-134765000D01*
X156338072Y-134765000D01*
X156338072Y-134000000D01*
X156325812Y-133875518D01*
X156289502Y-133755820D01*
X156230537Y-133645506D01*
X156151185Y-133548815D01*
X156054494Y-133469463D01*
X155944180Y-133410498D01*
X155824482Y-133374188D01*
X155700000Y-133361928D01*
X154435000Y-133361928D01*
X154435000Y-132901595D01*
X154450000Y-132903072D01*
X155014250Y-132900000D01*
X155173000Y-132741250D01*
X155173000Y-132067000D01*
X155427000Y-132067000D01*
X155427000Y-132741250D01*
X155585750Y-132900000D01*
X156150000Y-132903072D01*
X156274482Y-132890812D01*
X156394180Y-132854502D01*
X156504494Y-132795537D01*
X156601185Y-132716185D01*
X156680537Y-132619494D01*
X156739502Y-132509180D01*
X156775812Y-132389482D01*
X156788072Y-132265000D01*
X156785000Y-132225750D01*
X156626250Y-132067000D01*
X155427000Y-132067000D01*
X155173000Y-132067000D01*
X155153000Y-132067000D01*
X155153000Y-131813000D01*
X155173000Y-131813000D01*
X155173000Y-131793000D01*
X155427000Y-131793000D01*
X155427000Y-131813000D01*
X156626250Y-131813000D01*
X156785000Y-131654250D01*
X156788072Y-131615000D01*
X156775812Y-131490518D01*
X156739502Y-131370820D01*
X156704320Y-131305000D01*
X156739502Y-131239180D01*
X156775812Y-131119482D01*
X156788072Y-130995000D01*
X156788072Y-130345000D01*
X156775812Y-130220518D01*
X156739502Y-130100820D01*
X156704320Y-130035000D01*
X156739502Y-129969180D01*
X156775812Y-129849482D01*
X156788072Y-129725000D01*
X156788072Y-129075000D01*
X156775812Y-128950518D01*
X156739502Y-128830820D01*
X156737296Y-128826692D01*
X156863291Y-128723291D01*
X156889446Y-128691421D01*
X157820413Y-127760454D01*
X157887314Y-127747147D01*
X158066572Y-127672896D01*
X158227901Y-127565099D01*
X158365099Y-127427901D01*
X158472896Y-127266572D01*
X158547147Y-127087314D01*
X158585000Y-126897014D01*
X158585000Y-126702986D01*
X158547147Y-126512686D01*
X158472896Y-126333428D01*
X158365099Y-126172099D01*
X158227901Y-126034901D01*
X158066572Y-125927104D01*
X157887314Y-125852853D01*
X157697014Y-125815000D01*
X157502986Y-125815000D01*
X157312686Y-125852853D01*
X157133428Y-125927104D01*
X156972099Y-126034901D01*
X156834901Y-126172099D01*
X156727104Y-126333428D01*
X156652853Y-126512686D01*
X156639546Y-126579587D01*
X156052205Y-127166928D01*
X154450000Y-127166928D01*
X154325518Y-127179188D01*
X154205820Y-127215498D01*
X154095506Y-127274463D01*
X153998815Y-127353815D01*
X153919463Y-127450506D01*
X153860498Y-127560820D01*
X153824188Y-127680518D01*
X153811928Y-127805000D01*
X153811928Y-128455000D01*
X153824188Y-128579482D01*
X153828756Y-128594541D01*
X153728913Y-128624828D01*
X153583854Y-128702364D01*
X153456709Y-128806709D01*
X153430561Y-128838571D01*
X152648617Y-129620516D01*
X152645472Y-129610149D01*
X152563405Y-129456613D01*
X152488410Y-129365231D01*
X152588405Y-129243387D01*
X152670472Y-129089851D01*
X152721008Y-128923255D01*
X152738072Y-128750001D01*
X152738072Y-127849999D01*
X152721008Y-127676745D01*
X152670472Y-127510149D01*
X152588405Y-127356613D01*
X152477962Y-127222038D01*
X152343387Y-127111595D01*
X152293631Y-127085000D01*
X155256531Y-127085000D01*
X155300000Y-127089281D01*
X155343469Y-127085000D01*
X155343477Y-127085000D01*
X155473490Y-127072195D01*
X155640313Y-127021589D01*
X155794059Y-126939411D01*
X155928817Y-126828817D01*
X155956534Y-126795044D01*
X157195049Y-125556530D01*
X157228817Y-125528817D01*
X157317230Y-125421087D01*
X157339411Y-125394059D01*
X157421589Y-125240314D01*
X157472195Y-125073490D01*
X157473429Y-125060960D01*
X157485000Y-124943477D01*
X157485000Y-124943469D01*
X157489281Y-124900000D01*
X157485000Y-124856531D01*
X157485000Y-124629701D01*
X157524482Y-124625812D01*
X157644180Y-124589502D01*
X157754494Y-124530537D01*
X157851185Y-124451185D01*
X157930537Y-124354494D01*
X157989502Y-124244180D01*
X158025812Y-124124482D01*
X158029701Y-124085000D01*
X161465479Y-124085000D01*
X161485363Y-124114759D01*
%TA.AperFunction,Conductor*%
D20*
G36*
X161485363Y-124114759D02*
G01*
X161685241Y-124314637D01*
X161765001Y-124367931D01*
X161765000Y-125941018D01*
X161765001Y-125941028D01*
X161765000Y-127166928D01*
X161750000Y-127166928D01*
X161625518Y-127179188D01*
X161505820Y-127215498D01*
X161395506Y-127274463D01*
X161298815Y-127353815D01*
X161219463Y-127450506D01*
X161160498Y-127560820D01*
X161124188Y-127680518D01*
X161111928Y-127805000D01*
X161111928Y-128455000D01*
X161122762Y-128565000D01*
X160823287Y-128565000D01*
X160766572Y-128527104D01*
X160587314Y-128452853D01*
X160397014Y-128415000D01*
X160202986Y-128415000D01*
X160012686Y-128452853D01*
X159833428Y-128527104D01*
X159672099Y-128634901D01*
X159534901Y-128772099D01*
X159427104Y-128933428D01*
X159352853Y-129112686D01*
X159315000Y-129302986D01*
X159315000Y-129497014D01*
X159352853Y-129687314D01*
X159427104Y-129866572D01*
X159534901Y-130027901D01*
X159542000Y-130035000D01*
X159534901Y-130042099D01*
X159427104Y-130203428D01*
X159352853Y-130382686D01*
X159315000Y-130572986D01*
X159315000Y-130767014D01*
X159352853Y-130957314D01*
X159427104Y-131136572D01*
X159534901Y-131297901D01*
X159542000Y-131305000D01*
X159534901Y-131312099D01*
X159427104Y-131473428D01*
X159352853Y-131652686D01*
X159315000Y-131842986D01*
X159315000Y-132037014D01*
X159352853Y-132227314D01*
X159427104Y-132406572D01*
X159534901Y-132567901D01*
X159672099Y-132705099D01*
X159833428Y-132812896D01*
X160012686Y-132887147D01*
X160202986Y-132925000D01*
X160397014Y-132925000D01*
X160587314Y-132887147D01*
X160766572Y-132812896D01*
X160823287Y-132775000D01*
X161370482Y-132775000D01*
X161395506Y-132795537D01*
X161505820Y-132854502D01*
X161625518Y-132890812D01*
X161750000Y-132903072D01*
X163450000Y-132903072D01*
X163516388Y-132896534D01*
X163529528Y-132939851D01*
X163611595Y-133093387D01*
X163722038Y-133227962D01*
X163748891Y-133250000D01*
X163722038Y-133272038D01*
X163648267Y-133361928D01*
X162100000Y-133361928D01*
X161975518Y-133374188D01*
X161855820Y-133410498D01*
X161745506Y-133469463D01*
X161648815Y-133548815D01*
X161569463Y-133645506D01*
X161510498Y-133755820D01*
X161474188Y-133875518D01*
X161461928Y-134000000D01*
X161461928Y-134765000D01*
X156338072Y-134765000D01*
X156338072Y-134000000D01*
X156325812Y-133875518D01*
X156289502Y-133755820D01*
X156230537Y-133645506D01*
X156151185Y-133548815D01*
X156054494Y-133469463D01*
X155944180Y-133410498D01*
X155824482Y-133374188D01*
X155700000Y-133361928D01*
X154435000Y-133361928D01*
X154435000Y-132901595D01*
X154450000Y-132903072D01*
X155014250Y-132900000D01*
X155173000Y-132741250D01*
X155173000Y-132067000D01*
X155427000Y-132067000D01*
X155427000Y-132741250D01*
X155585750Y-132900000D01*
X156150000Y-132903072D01*
X156274482Y-132890812D01*
X156394180Y-132854502D01*
X156504494Y-132795537D01*
X156601185Y-132716185D01*
X156680537Y-132619494D01*
X156739502Y-132509180D01*
X156775812Y-132389482D01*
X156788072Y-132265000D01*
X156785000Y-132225750D01*
X156626250Y-132067000D01*
X155427000Y-132067000D01*
X155173000Y-132067000D01*
X155153000Y-132067000D01*
X155153000Y-131813000D01*
X155173000Y-131813000D01*
X155173000Y-131793000D01*
X155427000Y-131793000D01*
X155427000Y-131813000D01*
X156626250Y-131813000D01*
X156785000Y-131654250D01*
X156788072Y-131615000D01*
X156775812Y-131490518D01*
X156739502Y-131370820D01*
X156704320Y-131305000D01*
X156739502Y-131239180D01*
X156775812Y-131119482D01*
X156788072Y-130995000D01*
X156788072Y-130345000D01*
X156775812Y-130220518D01*
X156739502Y-130100820D01*
X156704320Y-130035000D01*
X156739502Y-129969180D01*
X156775812Y-129849482D01*
X156788072Y-129725000D01*
X156788072Y-129075000D01*
X156775812Y-128950518D01*
X156739502Y-128830820D01*
X156737296Y-128826692D01*
X156863291Y-128723291D01*
X156889446Y-128691421D01*
X157820413Y-127760454D01*
X157887314Y-127747147D01*
X158066572Y-127672896D01*
X158227901Y-127565099D01*
X158365099Y-127427901D01*
X158472896Y-127266572D01*
X158547147Y-127087314D01*
X158585000Y-126897014D01*
X158585000Y-126702986D01*
X158547147Y-126512686D01*
X158472896Y-126333428D01*
X158365099Y-126172099D01*
X158227901Y-126034901D01*
X158066572Y-125927104D01*
X157887314Y-125852853D01*
X157697014Y-125815000D01*
X157502986Y-125815000D01*
X157312686Y-125852853D01*
X157133428Y-125927104D01*
X156972099Y-126034901D01*
X156834901Y-126172099D01*
X156727104Y-126333428D01*
X156652853Y-126512686D01*
X156639546Y-126579587D01*
X156052205Y-127166928D01*
X154450000Y-127166928D01*
X154325518Y-127179188D01*
X154205820Y-127215498D01*
X154095506Y-127274463D01*
X153998815Y-127353815D01*
X153919463Y-127450506D01*
X153860498Y-127560820D01*
X153824188Y-127680518D01*
X153811928Y-127805000D01*
X153811928Y-128455000D01*
X153824188Y-128579482D01*
X153828756Y-128594541D01*
X153728913Y-128624828D01*
X153583854Y-128702364D01*
X153456709Y-128806709D01*
X153430561Y-128838571D01*
X152648617Y-129620516D01*
X152645472Y-129610149D01*
X152563405Y-129456613D01*
X152488410Y-129365231D01*
X152588405Y-129243387D01*
X152670472Y-129089851D01*
X152721008Y-128923255D01*
X152738072Y-128750001D01*
X152738072Y-127849999D01*
X152721008Y-127676745D01*
X152670472Y-127510149D01*
X152588405Y-127356613D01*
X152477962Y-127222038D01*
X152343387Y-127111595D01*
X152293631Y-127085000D01*
X155256531Y-127085000D01*
X155300000Y-127089281D01*
X155343469Y-127085000D01*
X155343477Y-127085000D01*
X155473490Y-127072195D01*
X155640313Y-127021589D01*
X155794059Y-126939411D01*
X155928817Y-126828817D01*
X155956534Y-126795044D01*
X157195049Y-125556530D01*
X157228817Y-125528817D01*
X157317230Y-125421087D01*
X157339411Y-125394059D01*
X157421589Y-125240314D01*
X157472195Y-125073490D01*
X157473429Y-125060960D01*
X157485000Y-124943477D01*
X157485000Y-124943469D01*
X157489281Y-124900000D01*
X157485000Y-124856531D01*
X157485000Y-124629701D01*
X157524482Y-124625812D01*
X157644180Y-124589502D01*
X157754494Y-124530537D01*
X157851185Y-124451185D01*
X157930537Y-124354494D01*
X157989502Y-124244180D01*
X158025812Y-124124482D01*
X158029701Y-124085000D01*
X161465479Y-124085000D01*
X161485363Y-124114759D01*
G37*
%TD.AperFunction*%
%TD*%
M02*
