%TF.GenerationSoftware,KiCad,Pcbnew,(5.1.10)-1*%
%TF.CreationDate,2022-07-24T21:09:46+02:00*%
%TF.ProjectId,PCB,5043422e-6b69-4636-9164-5f7063625858,rev?*%
%TF.SameCoordinates,Original*%
%TF.FileFunction,Legend,Top*%
%TF.FilePolarity,Positive*%
%FSLAX46Y46*%
G04 Gerber Fmt 4.6, Leading zero omitted, Abs format (unit mm)*
G04 Created by KiCad (PCBNEW (5.1.10)-1) date 2022-07-24 21:09:46*
%MOMM*%
%LPD*%
G01*
G04 APERTURE LIST*
%ADD10C,0.250000*%
%ADD11C,0.150000*%
%ADD12C,0.120000*%
%ADD13C,0.200000*%
%ADD14C,0.254000*%
%ADD15C,3.200000*%
%ADD16C,1.600000*%
%ADD17R,1.600000X1.600000*%
%ADD18R,1.450000X2.100000*%
%ADD19R,1.700000X0.650000*%
%ADD20R,1.550000X1.300000*%
G04 APERTURE END LIST*
D10*
X176905952Y-134750000D02*
X176965476Y-134571428D01*
X176965476Y-134273809D01*
X176905952Y-134154761D01*
X176846428Y-134095238D01*
X176727380Y-134035714D01*
X176608333Y-134035714D01*
X176489285Y-134095238D01*
X176429761Y-134154761D01*
X176370238Y-134273809D01*
X176310714Y-134511904D01*
X176251190Y-134630952D01*
X176191666Y-134690476D01*
X176072619Y-134750000D01*
X175953571Y-134750000D01*
X175834523Y-134690476D01*
X175775000Y-134630952D01*
X175715476Y-134511904D01*
X175715476Y-134214285D01*
X175775000Y-134035714D01*
X176965476Y-133500000D02*
X175715476Y-133500000D01*
X176608333Y-133083333D01*
X175715476Y-132666666D01*
X176965476Y-132666666D01*
X175715476Y-131833333D02*
X175715476Y-131595238D01*
X175775000Y-131476190D01*
X175894047Y-131357142D01*
X176132142Y-131297619D01*
X176548809Y-131297619D01*
X176786904Y-131357142D01*
X176905952Y-131476190D01*
X176965476Y-131595238D01*
X176965476Y-131833333D01*
X176905952Y-131952380D01*
X176786904Y-132071428D01*
X176548809Y-132130952D01*
X176132142Y-132130952D01*
X175894047Y-132071428D01*
X175775000Y-131952380D01*
X175715476Y-131833333D01*
X175715476Y-130940476D02*
X175715476Y-130226190D01*
X176965476Y-130583333D02*
X175715476Y-130583333D01*
X175715476Y-129988095D02*
X175715476Y-129273809D01*
X176965476Y-129630952D02*
X175715476Y-129630952D01*
X176965476Y-128261904D02*
X176965476Y-128857142D01*
X175715476Y-128857142D01*
X176310714Y-127845238D02*
X176310714Y-127428571D01*
X176965476Y-127250000D02*
X176965476Y-127845238D01*
X175715476Y-127845238D01*
X175715476Y-127250000D01*
D11*
X163380952Y-124452380D02*
X163380952Y-125166666D01*
X163333333Y-125309523D01*
X163238095Y-125404761D01*
X163095238Y-125452380D01*
X163000000Y-125452380D01*
X164333333Y-125452380D02*
X163857142Y-125452380D01*
X163857142Y-124452380D01*
X165238095Y-125357142D02*
X165190476Y-125404761D01*
X165047619Y-125452380D01*
X164952380Y-125452380D01*
X164809523Y-125404761D01*
X164714285Y-125309523D01*
X164666666Y-125214285D01*
X164619047Y-125023809D01*
X164619047Y-124880952D01*
X164666666Y-124690476D01*
X164714285Y-124595238D01*
X164809523Y-124500000D01*
X164952380Y-124452380D01*
X165047619Y-124452380D01*
X165190476Y-124500000D01*
X165238095Y-124547619D01*
X165952380Y-124452380D02*
X165952380Y-125166666D01*
X165904761Y-125309523D01*
X165809523Y-125404761D01*
X165666666Y-125452380D01*
X165571428Y-125452380D01*
X166904761Y-125452380D02*
X166428571Y-125452380D01*
X166428571Y-124452380D01*
X167809523Y-125357142D02*
X167761904Y-125404761D01*
X167619047Y-125452380D01*
X167523809Y-125452380D01*
X167380952Y-125404761D01*
X167285714Y-125309523D01*
X167238095Y-125214285D01*
X167190476Y-125023809D01*
X167190476Y-124880952D01*
X167238095Y-124690476D01*
X167285714Y-124595238D01*
X167380952Y-124500000D01*
X167523809Y-124452380D01*
X167619047Y-124452380D01*
X167761904Y-124500000D01*
X167809523Y-124547619D01*
X168523809Y-124452380D02*
X168523809Y-125166666D01*
X168476190Y-125309523D01*
X168380952Y-125404761D01*
X168238095Y-125452380D01*
X168142857Y-125452380D01*
X169476190Y-125452380D02*
X169000000Y-125452380D01*
X169000000Y-124452380D01*
X170380952Y-125357142D02*
X170333333Y-125404761D01*
X170190476Y-125452380D01*
X170095238Y-125452380D01*
X169952380Y-125404761D01*
X169857142Y-125309523D01*
X169809523Y-125214285D01*
X169761904Y-125023809D01*
X169761904Y-124880952D01*
X169809523Y-124690476D01*
X169857142Y-124595238D01*
X169952380Y-124500000D01*
X170095238Y-124452380D01*
X170190476Y-124452380D01*
X170333333Y-124500000D01*
X170380952Y-124547619D01*
X171095238Y-124452380D02*
X171095238Y-125166666D01*
X171047619Y-125309523D01*
X170952380Y-125404761D01*
X170809523Y-125452380D01*
X170714285Y-125452380D01*
X172047619Y-125452380D02*
X171571428Y-125452380D01*
X171571428Y-124452380D01*
X172952380Y-125357142D02*
X172904761Y-125404761D01*
X172761904Y-125452380D01*
X172666666Y-125452380D01*
X172523809Y-125404761D01*
X172428571Y-125309523D01*
X172380952Y-125214285D01*
X172333333Y-125023809D01*
X172333333Y-124880952D01*
X172380952Y-124690476D01*
X172428571Y-124595238D01*
X172523809Y-124500000D01*
X172666666Y-124452380D01*
X172761904Y-124452380D01*
X172904761Y-124500000D01*
X172952380Y-124547619D01*
D12*
%TO.C,C1*%
X165560000Y-129176248D02*
X165560000Y-129698752D01*
X164090000Y-129176248D02*
X164090000Y-129698752D01*
%TO.C,J1*%
X137320000Y-131300000D02*
X138320000Y-130800000D01*
X137320000Y-130300000D02*
X137320000Y-131300000D01*
X138320000Y-130800000D02*
X137320000Y-130300000D01*
X140020000Y-135390000D02*
X138710000Y-135390000D01*
X140020000Y-135390000D02*
X140020000Y-135390000D01*
X140020000Y-139790000D02*
X140020000Y-135390000D01*
X146520000Y-139790000D02*
X140020000Y-139790000D01*
X146520000Y-126890000D02*
X146520000Y-139790000D01*
X140020000Y-126890000D02*
X146520000Y-126890000D01*
X140020000Y-131290000D02*
X140020000Y-126890000D01*
X138710000Y-131290000D02*
X140020000Y-131290000D01*
X138710000Y-141090000D02*
X138710000Y-125590000D01*
X147830000Y-141090000D02*
X138710000Y-141090000D01*
X147830000Y-125590000D02*
X147830000Y-141090000D01*
X138710000Y-125590000D02*
X147830000Y-125590000D01*
D13*
%TO.C,J3*%
X172600000Y-126400000D02*
X160100000Y-126400000D01*
X160100000Y-126400000D02*
X160100000Y-120000000D01*
X160100000Y-120000000D02*
X175100000Y-120000000D01*
X175100000Y-120000000D02*
X175100000Y-123200000D01*
%TO.C,J2*%
X159100000Y-120000000D02*
X159100000Y-123200000D01*
X149100000Y-120000000D02*
X159100000Y-120000000D01*
X149100000Y-126400000D02*
X149100000Y-120000000D01*
X156600000Y-126400000D02*
X149100000Y-126400000D01*
%TO.C,U2*%
X166770000Y-135800000D02*
X166770000Y-129500000D01*
X166770000Y-129500000D02*
X171370000Y-129500000D01*
X171370000Y-129500000D02*
X171370000Y-135800000D01*
X171370000Y-135800000D02*
X166770000Y-135800000D01*
X166725000Y-138250000D02*
X166725000Y-136150000D01*
D11*
%TO.C,U1*%
X156200000Y-127485000D02*
X154450000Y-127485000D01*
X156200000Y-132790000D02*
X161700000Y-132790000D01*
X156200000Y-127280000D02*
X161700000Y-127280000D01*
X156200000Y-132790000D02*
X156200000Y-132490000D01*
X161700000Y-132790000D02*
X161700000Y-132490000D01*
X161700000Y-127280000D02*
X161700000Y-127580000D01*
X156200000Y-127280000D02*
X156200000Y-127485000D01*
D14*
%TO.C,SW1*%
X161900000Y-133900000D02*
X155900000Y-133900000D01*
X155900000Y-133900000D02*
X155900000Y-139900000D01*
X155900000Y-139900000D02*
X161900000Y-139900000D01*
X161900000Y-139900000D02*
X161900000Y-133900000D01*
X165128900Y-139839000D02*
G75*
G03*
X165128900Y-139839000I-120900J0D01*
G01*
D12*
%TO.C,R6*%
X172565000Y-128872936D02*
X172565000Y-129327064D01*
X174035000Y-128872936D02*
X174035000Y-129327064D01*
%TO.C,R5*%
X150272936Y-137535000D02*
X150727064Y-137535000D01*
X150272936Y-136065000D02*
X150727064Y-136065000D01*
%TO.C,R4*%
X150272936Y-135335000D02*
X150727064Y-135335000D01*
X150272936Y-133865000D02*
X150727064Y-133865000D01*
%TO.C,R3*%
X169372936Y-140435000D02*
X169827064Y-140435000D01*
X169372936Y-138965000D02*
X169827064Y-138965000D01*
%TO.C,R2*%
X165535000Y-133477064D02*
X165535000Y-133022936D01*
X164065000Y-133477064D02*
X164065000Y-133022936D01*
%TO.C,R1*%
X150727064Y-127565000D02*
X150272936Y-127565000D01*
X150727064Y-129035000D02*
X150272936Y-129035000D01*
%TO.C,D2*%
X148615000Y-133460000D02*
X151475000Y-133460000D01*
X148615000Y-131540000D02*
X148615000Y-133460000D01*
X151475000Y-131540000D02*
X148615000Y-131540000D01*
%TO.C,D1*%
X148615000Y-131360000D02*
X151475000Y-131360000D01*
X148615000Y-129440000D02*
X148615000Y-131360000D01*
X151475000Y-129440000D02*
X148615000Y-129440000D01*
%TO.C,C1*%
D11*
X166682142Y-129604166D02*
X166729761Y-129651785D01*
X166777380Y-129794642D01*
X166777380Y-129889880D01*
X166729761Y-130032738D01*
X166634523Y-130127976D01*
X166539285Y-130175595D01*
X166348809Y-130223214D01*
X166205952Y-130223214D01*
X166015476Y-130175595D01*
X165920238Y-130127976D01*
X165825000Y-130032738D01*
X165777380Y-129889880D01*
X165777380Y-129794642D01*
X165825000Y-129651785D01*
X165872619Y-129604166D01*
X166777380Y-128651785D02*
X166777380Y-129223214D01*
X166777380Y-128937500D02*
X165777380Y-128937500D01*
X165920238Y-129032738D01*
X166015476Y-129127976D01*
X166063095Y-129223214D01*
%TO.C,J1*%
X147066666Y-124052380D02*
X147066666Y-124766666D01*
X147019047Y-124909523D01*
X146923809Y-125004761D01*
X146780952Y-125052380D01*
X146685714Y-125052380D01*
X148066666Y-125052380D02*
X147495238Y-125052380D01*
X147780952Y-125052380D02*
X147780952Y-124052380D01*
X147685714Y-124195238D01*
X147590476Y-124290476D01*
X147495238Y-124338095D01*
%TO.C,J3*%
X175966666Y-119952380D02*
X175966666Y-120666666D01*
X175919047Y-120809523D01*
X175823809Y-120904761D01*
X175680952Y-120952380D01*
X175585714Y-120952380D01*
X176347619Y-119952380D02*
X176966666Y-119952380D01*
X176633333Y-120333333D01*
X176776190Y-120333333D01*
X176871428Y-120380952D01*
X176919047Y-120428571D01*
X176966666Y-120523809D01*
X176966666Y-120761904D01*
X176919047Y-120857142D01*
X176871428Y-120904761D01*
X176776190Y-120952380D01*
X176490476Y-120952380D01*
X176395238Y-120904761D01*
X176347619Y-120857142D01*
%TO.C,J2*%
X147566666Y-119852380D02*
X147566666Y-120566666D01*
X147519047Y-120709523D01*
X147423809Y-120804761D01*
X147280952Y-120852380D01*
X147185714Y-120852380D01*
X147995238Y-119947619D02*
X148042857Y-119900000D01*
X148138095Y-119852380D01*
X148376190Y-119852380D01*
X148471428Y-119900000D01*
X148519047Y-119947619D01*
X148566666Y-120042857D01*
X148566666Y-120138095D01*
X148519047Y-120280952D01*
X147947619Y-120852380D01*
X148566666Y-120852380D01*
%TO.C,U2*%
X164478095Y-137052380D02*
X164478095Y-137861904D01*
X164525714Y-137957142D01*
X164573333Y-138004761D01*
X164668571Y-138052380D01*
X164859047Y-138052380D01*
X164954285Y-138004761D01*
X165001904Y-137957142D01*
X165049523Y-137861904D01*
X165049523Y-137052380D01*
X165478095Y-137147619D02*
X165525714Y-137100000D01*
X165620952Y-137052380D01*
X165859047Y-137052380D01*
X165954285Y-137100000D01*
X166001904Y-137147619D01*
X166049523Y-137242857D01*
X166049523Y-137338095D01*
X166001904Y-137480952D01*
X165430476Y-138052380D01*
X166049523Y-138052380D01*
%TO.C,U1*%
X162138095Y-132652380D02*
X162138095Y-133461904D01*
X162185714Y-133557142D01*
X162233333Y-133604761D01*
X162328571Y-133652380D01*
X162519047Y-133652380D01*
X162614285Y-133604761D01*
X162661904Y-133557142D01*
X162709523Y-133461904D01*
X162709523Y-132652380D01*
X163709523Y-133652380D02*
X163138095Y-133652380D01*
X163423809Y-133652380D02*
X163423809Y-132652380D01*
X163328571Y-132795238D01*
X163233333Y-132890476D01*
X163138095Y-132938095D01*
%TO.C,SW1*%
X157566666Y-141414047D02*
X157709523Y-141474523D01*
X157947619Y-141474523D01*
X158042857Y-141414047D01*
X158090476Y-141353571D01*
X158138095Y-141232619D01*
X158138095Y-141111666D01*
X158090476Y-140990714D01*
X158042857Y-140930238D01*
X157947619Y-140869761D01*
X157757142Y-140809285D01*
X157661904Y-140748809D01*
X157614285Y-140688333D01*
X157566666Y-140567380D01*
X157566666Y-140446428D01*
X157614285Y-140325476D01*
X157661904Y-140265000D01*
X157757142Y-140204523D01*
X157995238Y-140204523D01*
X158138095Y-140265000D01*
X158471428Y-140204523D02*
X158709523Y-141474523D01*
X158900000Y-140567380D01*
X159090476Y-141474523D01*
X159328571Y-140204523D01*
X160233333Y-141474523D02*
X159661904Y-141474523D01*
X159947619Y-141474523D02*
X159947619Y-140204523D01*
X159852380Y-140385952D01*
X159757142Y-140506904D01*
X159661904Y-140567380D01*
%TO.C,R6*%
X173852380Y-132166666D02*
X173376190Y-132500000D01*
X173852380Y-132738095D02*
X172852380Y-132738095D01*
X172852380Y-132357142D01*
X172900000Y-132261904D01*
X172947619Y-132214285D01*
X173042857Y-132166666D01*
X173185714Y-132166666D01*
X173280952Y-132214285D01*
X173328571Y-132261904D01*
X173376190Y-132357142D01*
X173376190Y-132738095D01*
X172852380Y-131309523D02*
X172852380Y-131500000D01*
X172900000Y-131595238D01*
X172947619Y-131642857D01*
X173090476Y-131738095D01*
X173280952Y-131785714D01*
X173661904Y-131785714D01*
X173757142Y-131738095D01*
X173804761Y-131690476D01*
X173852380Y-131595238D01*
X173852380Y-131404761D01*
X173804761Y-131309523D01*
X173757142Y-131261904D01*
X173661904Y-131214285D01*
X173423809Y-131214285D01*
X173328571Y-131261904D01*
X173280952Y-131309523D01*
X173233333Y-131404761D01*
X173233333Y-131595238D01*
X173280952Y-131690476D01*
X173328571Y-131738095D01*
X173423809Y-131785714D01*
%TO.C,R5*%
X153033333Y-137252380D02*
X152700000Y-136776190D01*
X152461904Y-137252380D02*
X152461904Y-136252380D01*
X152842857Y-136252380D01*
X152938095Y-136300000D01*
X152985714Y-136347619D01*
X153033333Y-136442857D01*
X153033333Y-136585714D01*
X152985714Y-136680952D01*
X152938095Y-136728571D01*
X152842857Y-136776190D01*
X152461904Y-136776190D01*
X153938095Y-136252380D02*
X153461904Y-136252380D01*
X153414285Y-136728571D01*
X153461904Y-136680952D01*
X153557142Y-136633333D01*
X153795238Y-136633333D01*
X153890476Y-136680952D01*
X153938095Y-136728571D01*
X153985714Y-136823809D01*
X153985714Y-137061904D01*
X153938095Y-137157142D01*
X153890476Y-137204761D01*
X153795238Y-137252380D01*
X153557142Y-137252380D01*
X153461904Y-137204761D01*
X153414285Y-137157142D01*
%TO.C,R4*%
X153033333Y-135052380D02*
X152700000Y-134576190D01*
X152461904Y-135052380D02*
X152461904Y-134052380D01*
X152842857Y-134052380D01*
X152938095Y-134100000D01*
X152985714Y-134147619D01*
X153033333Y-134242857D01*
X153033333Y-134385714D01*
X152985714Y-134480952D01*
X152938095Y-134528571D01*
X152842857Y-134576190D01*
X152461904Y-134576190D01*
X153890476Y-134385714D02*
X153890476Y-135052380D01*
X153652380Y-134004761D02*
X153414285Y-134719047D01*
X154033333Y-134719047D01*
%TO.C,R3*%
X166533333Y-140252380D02*
X166200000Y-139776190D01*
X165961904Y-140252380D02*
X165961904Y-139252380D01*
X166342857Y-139252380D01*
X166438095Y-139300000D01*
X166485714Y-139347619D01*
X166533333Y-139442857D01*
X166533333Y-139585714D01*
X166485714Y-139680952D01*
X166438095Y-139728571D01*
X166342857Y-139776190D01*
X165961904Y-139776190D01*
X166866666Y-139252380D02*
X167485714Y-139252380D01*
X167152380Y-139633333D01*
X167295238Y-139633333D01*
X167390476Y-139680952D01*
X167438095Y-139728571D01*
X167485714Y-139823809D01*
X167485714Y-140061904D01*
X167438095Y-140157142D01*
X167390476Y-140204761D01*
X167295238Y-140252380D01*
X167009523Y-140252380D01*
X166914285Y-140204761D01*
X166866666Y-140157142D01*
%TO.C,R2*%
X166752380Y-133166666D02*
X166276190Y-133500000D01*
X166752380Y-133738095D02*
X165752380Y-133738095D01*
X165752380Y-133357142D01*
X165800000Y-133261904D01*
X165847619Y-133214285D01*
X165942857Y-133166666D01*
X166085714Y-133166666D01*
X166180952Y-133214285D01*
X166228571Y-133261904D01*
X166276190Y-133357142D01*
X166276190Y-133738095D01*
X165847619Y-132785714D02*
X165800000Y-132738095D01*
X165752380Y-132642857D01*
X165752380Y-132404761D01*
X165800000Y-132309523D01*
X165847619Y-132261904D01*
X165942857Y-132214285D01*
X166038095Y-132214285D01*
X166180952Y-132261904D01*
X166752380Y-132833333D01*
X166752380Y-132214285D01*
%TO.C,R1*%
X153033333Y-128752380D02*
X152700000Y-128276190D01*
X152461904Y-128752380D02*
X152461904Y-127752380D01*
X152842857Y-127752380D01*
X152938095Y-127800000D01*
X152985714Y-127847619D01*
X153033333Y-127942857D01*
X153033333Y-128085714D01*
X152985714Y-128180952D01*
X152938095Y-128228571D01*
X152842857Y-128276190D01*
X152461904Y-128276190D01*
X153985714Y-128752380D02*
X153414285Y-128752380D01*
X153700000Y-128752380D02*
X153700000Y-127752380D01*
X153604761Y-127895238D01*
X153509523Y-127990476D01*
X153414285Y-128038095D01*
%TO.C,D2*%
X152461904Y-132952380D02*
X152461904Y-131952380D01*
X152700000Y-131952380D01*
X152842857Y-132000000D01*
X152938095Y-132095238D01*
X152985714Y-132190476D01*
X153033333Y-132380952D01*
X153033333Y-132523809D01*
X152985714Y-132714285D01*
X152938095Y-132809523D01*
X152842857Y-132904761D01*
X152700000Y-132952380D01*
X152461904Y-132952380D01*
X153414285Y-132047619D02*
X153461904Y-132000000D01*
X153557142Y-131952380D01*
X153795238Y-131952380D01*
X153890476Y-132000000D01*
X153938095Y-132047619D01*
X153985714Y-132142857D01*
X153985714Y-132238095D01*
X153938095Y-132380952D01*
X153366666Y-132952380D01*
X153985714Y-132952380D01*
%TO.C,D1*%
X152461904Y-130852380D02*
X152461904Y-129852380D01*
X152700000Y-129852380D01*
X152842857Y-129900000D01*
X152938095Y-129995238D01*
X152985714Y-130090476D01*
X153033333Y-130280952D01*
X153033333Y-130423809D01*
X152985714Y-130614285D01*
X152938095Y-130709523D01*
X152842857Y-130804761D01*
X152700000Y-130852380D01*
X152461904Y-130852380D01*
X153985714Y-130852380D02*
X153414285Y-130852380D01*
X153700000Y-130852380D02*
X153700000Y-129852380D01*
X153604761Y-129995238D01*
X153509523Y-130090476D01*
X153414285Y-130138095D01*
%TD*%
%LPC*%
%TO.C,C1*%
G36*
G01*
X164350000Y-129887500D02*
X165300000Y-129887500D01*
G75*
G02*
X165550000Y-130137500I0J-250000D01*
G01*
X165550000Y-130812500D01*
G75*
G02*
X165300000Y-131062500I-250000J0D01*
G01*
X164350000Y-131062500D01*
G75*
G02*
X164100000Y-130812500I0J250000D01*
G01*
X164100000Y-130137500D01*
G75*
G02*
X164350000Y-129887500I250000J0D01*
G01*
G37*
G36*
G01*
X164350000Y-127812500D02*
X165300000Y-127812500D01*
G75*
G02*
X165550000Y-128062500I0J-250000D01*
G01*
X165550000Y-128737500D01*
G75*
G02*
X165300000Y-128987500I-250000J0D01*
G01*
X164350000Y-128987500D01*
G75*
G02*
X164100000Y-128737500I0J250000D01*
G01*
X164100000Y-128062500D01*
G75*
G02*
X164350000Y-127812500I250000J0D01*
G01*
G37*
%TD*%
D15*
%TO.C,MH1*%
X141100000Y-122100000D03*
%TD*%
%TO.C,MH2*%
X174800000Y-138900000D03*
%TD*%
D16*
%TO.C,J1*%
X144540000Y-135880000D03*
X144540000Y-133340000D03*
X144540000Y-130800000D03*
X142000000Y-135880000D03*
X142000000Y-133340000D03*
G36*
G01*
X141200000Y-131364800D02*
X141200000Y-130235200D01*
G75*
G02*
X141435200Y-130000000I235200J0D01*
G01*
X142564800Y-130000000D01*
G75*
G02*
X142800000Y-130235200I0J-235200D01*
G01*
X142800000Y-131364800D01*
G75*
G02*
X142564800Y-131600000I-235200J0D01*
G01*
X141435200Y-131600000D01*
G75*
G02*
X141200000Y-131364800I0J235200D01*
G01*
G37*
%TD*%
%TO.C,J3*%
X162600000Y-123200000D03*
X165100000Y-123200000D03*
X167600000Y-123200000D03*
X170100000Y-123200000D03*
D17*
X172600000Y-123200000D03*
%TD*%
%TO.C,J2*%
X156600000Y-123200000D03*
D16*
X154100000Y-123200000D03*
X151600000Y-123200000D03*
%TD*%
D18*
%TO.C,U2*%
X167800000Y-128100000D03*
X170340000Y-128100000D03*
X170340000Y-137200000D03*
X167800000Y-137200000D03*
%TD*%
D19*
%TO.C,U1*%
X162600000Y-128130000D03*
X162600000Y-129400000D03*
X162600000Y-130670000D03*
X162600000Y-131940000D03*
X155300000Y-131940000D03*
X155300000Y-130670000D03*
X155300000Y-129400000D03*
X155300000Y-128130000D03*
%TD*%
D20*
%TO.C,SW1*%
X154925000Y-134650000D03*
X162875000Y-134650000D03*
X154925000Y-139150000D03*
X162875000Y-139150000D03*
%TD*%
%TO.C,R6*%
G36*
G01*
X172849999Y-129500000D02*
X173750001Y-129500000D01*
G75*
G02*
X174000000Y-129749999I0J-249999D01*
G01*
X174000000Y-130450001D01*
G75*
G02*
X173750001Y-130700000I-249999J0D01*
G01*
X172849999Y-130700000D01*
G75*
G02*
X172600000Y-130450001I0J249999D01*
G01*
X172600000Y-129749999D01*
G75*
G02*
X172849999Y-129500000I249999J0D01*
G01*
G37*
G36*
G01*
X172849999Y-127500000D02*
X173750001Y-127500000D01*
G75*
G02*
X174000000Y-127749999I0J-249999D01*
G01*
X174000000Y-128450001D01*
G75*
G02*
X173750001Y-128700000I-249999J0D01*
G01*
X172849999Y-128700000D01*
G75*
G02*
X172600000Y-128450001I0J249999D01*
G01*
X172600000Y-127749999D01*
G75*
G02*
X172849999Y-127500000I249999J0D01*
G01*
G37*
%TD*%
%TO.C,R5*%
G36*
G01*
X150900000Y-137250001D02*
X150900000Y-136349999D01*
G75*
G02*
X151149999Y-136100000I249999J0D01*
G01*
X151850001Y-136100000D01*
G75*
G02*
X152100000Y-136349999I0J-249999D01*
G01*
X152100000Y-137250001D01*
G75*
G02*
X151850001Y-137500000I-249999J0D01*
G01*
X151149999Y-137500000D01*
G75*
G02*
X150900000Y-137250001I0J249999D01*
G01*
G37*
G36*
G01*
X148900000Y-137250001D02*
X148900000Y-136349999D01*
G75*
G02*
X149149999Y-136100000I249999J0D01*
G01*
X149850001Y-136100000D01*
G75*
G02*
X150100000Y-136349999I0J-249999D01*
G01*
X150100000Y-137250001D01*
G75*
G02*
X149850001Y-137500000I-249999J0D01*
G01*
X149149999Y-137500000D01*
G75*
G02*
X148900000Y-137250001I0J249999D01*
G01*
G37*
%TD*%
%TO.C,R4*%
G36*
G01*
X150900000Y-135050001D02*
X150900000Y-134149999D01*
G75*
G02*
X151149999Y-133900000I249999J0D01*
G01*
X151850001Y-133900000D01*
G75*
G02*
X152100000Y-134149999I0J-249999D01*
G01*
X152100000Y-135050001D01*
G75*
G02*
X151850001Y-135300000I-249999J0D01*
G01*
X151149999Y-135300000D01*
G75*
G02*
X150900000Y-135050001I0J249999D01*
G01*
G37*
G36*
G01*
X148900000Y-135050001D02*
X148900000Y-134149999D01*
G75*
G02*
X149149999Y-133900000I249999J0D01*
G01*
X149850001Y-133900000D01*
G75*
G02*
X150100000Y-134149999I0J-249999D01*
G01*
X150100000Y-135050001D01*
G75*
G02*
X149850001Y-135300000I-249999J0D01*
G01*
X149149999Y-135300000D01*
G75*
G02*
X148900000Y-135050001I0J249999D01*
G01*
G37*
%TD*%
%TO.C,R3*%
G36*
G01*
X170000000Y-140150001D02*
X170000000Y-139249999D01*
G75*
G02*
X170249999Y-139000000I249999J0D01*
G01*
X170950001Y-139000000D01*
G75*
G02*
X171200000Y-139249999I0J-249999D01*
G01*
X171200000Y-140150001D01*
G75*
G02*
X170950001Y-140400000I-249999J0D01*
G01*
X170249999Y-140400000D01*
G75*
G02*
X170000000Y-140150001I0J249999D01*
G01*
G37*
G36*
G01*
X168000000Y-140150001D02*
X168000000Y-139249999D01*
G75*
G02*
X168249999Y-139000000I249999J0D01*
G01*
X168950001Y-139000000D01*
G75*
G02*
X169200000Y-139249999I0J-249999D01*
G01*
X169200000Y-140150001D01*
G75*
G02*
X168950001Y-140400000I-249999J0D01*
G01*
X168249999Y-140400000D01*
G75*
G02*
X168000000Y-140150001I0J249999D01*
G01*
G37*
%TD*%
%TO.C,R2*%
G36*
G01*
X165250001Y-132850000D02*
X164349999Y-132850000D01*
G75*
G02*
X164100000Y-132600001I0J249999D01*
G01*
X164100000Y-131899999D01*
G75*
G02*
X164349999Y-131650000I249999J0D01*
G01*
X165250001Y-131650000D01*
G75*
G02*
X165500000Y-131899999I0J-249999D01*
G01*
X165500000Y-132600001D01*
G75*
G02*
X165250001Y-132850000I-249999J0D01*
G01*
G37*
G36*
G01*
X165250001Y-134850000D02*
X164349999Y-134850000D01*
G75*
G02*
X164100000Y-134600001I0J249999D01*
G01*
X164100000Y-133899999D01*
G75*
G02*
X164349999Y-133650000I249999J0D01*
G01*
X165250001Y-133650000D01*
G75*
G02*
X165500000Y-133899999I0J-249999D01*
G01*
X165500000Y-134600001D01*
G75*
G02*
X165250001Y-134850000I-249999J0D01*
G01*
G37*
%TD*%
%TO.C,R1*%
G36*
G01*
X150100000Y-127849999D02*
X150100000Y-128750001D01*
G75*
G02*
X149850001Y-129000000I-249999J0D01*
G01*
X149149999Y-129000000D01*
G75*
G02*
X148900000Y-128750001I0J249999D01*
G01*
X148900000Y-127849999D01*
G75*
G02*
X149149999Y-127600000I249999J0D01*
G01*
X149850001Y-127600000D01*
G75*
G02*
X150100000Y-127849999I0J-249999D01*
G01*
G37*
G36*
G01*
X152100000Y-127849999D02*
X152100000Y-128750001D01*
G75*
G02*
X151850001Y-129000000I-249999J0D01*
G01*
X151149999Y-129000000D01*
G75*
G02*
X150900000Y-128750001I0J249999D01*
G01*
X150900000Y-127849999D01*
G75*
G02*
X151149999Y-127600000I249999J0D01*
G01*
X151850001Y-127600000D01*
G75*
G02*
X152100000Y-127849999I0J-249999D01*
G01*
G37*
%TD*%
%TO.C,D2*%
G36*
G01*
X150925000Y-132950001D02*
X150925000Y-132049999D01*
G75*
G02*
X151174999Y-131800000I249999J0D01*
G01*
X151825001Y-131800000D01*
G75*
G02*
X152075000Y-132049999I0J-249999D01*
G01*
X152075000Y-132950001D01*
G75*
G02*
X151825001Y-133200000I-249999J0D01*
G01*
X151174999Y-133200000D01*
G75*
G02*
X150925000Y-132950001I0J249999D01*
G01*
G37*
G36*
G01*
X148875000Y-132950001D02*
X148875000Y-132049999D01*
G75*
G02*
X149124999Y-131800000I249999J0D01*
G01*
X149775001Y-131800000D01*
G75*
G02*
X150025000Y-132049999I0J-249999D01*
G01*
X150025000Y-132950001D01*
G75*
G02*
X149775001Y-133200000I-249999J0D01*
G01*
X149124999Y-133200000D01*
G75*
G02*
X148875000Y-132950001I0J249999D01*
G01*
G37*
%TD*%
%TO.C,D1*%
G36*
G01*
X150925000Y-130850001D02*
X150925000Y-129949999D01*
G75*
G02*
X151174999Y-129700000I249999J0D01*
G01*
X151825001Y-129700000D01*
G75*
G02*
X152075000Y-129949999I0J-249999D01*
G01*
X152075000Y-130850001D01*
G75*
G02*
X151825001Y-131100000I-249999J0D01*
G01*
X151174999Y-131100000D01*
G75*
G02*
X150925000Y-130850001I0J249999D01*
G01*
G37*
G36*
G01*
X148875000Y-130850001D02*
X148875000Y-129949999D01*
G75*
G02*
X149124999Y-129700000I249999J0D01*
G01*
X149775001Y-129700000D01*
G75*
G02*
X150025000Y-129949999I0J-249999D01*
G01*
X150025000Y-130850001D01*
G75*
G02*
X149775001Y-131100000I-249999J0D01*
G01*
X149124999Y-131100000D01*
G75*
G02*
X148875000Y-130850001I0J249999D01*
G01*
G37*
%TD*%
M02*
