%TF.GenerationSoftware,KiCad,Pcbnew,(5.1.10)-1*%
%TF.CreationDate,2022-07-24T21:09:46+02:00*%
%TF.ProjectId,PCB,5043422e-6b69-4636-9164-5f7063625858,rev?*%
%TF.SameCoordinates,Original*%
%TF.FileFunction,Soldermask,Top*%
%TF.FilePolarity,Negative*%
%FSLAX46Y46*%
G04 Gerber Fmt 4.6, Leading zero omitted, Abs format (unit mm)*
G04 Created by KiCad (PCBNEW (5.1.10)-1) date 2022-07-24 21:09:46*
%MOMM*%
%LPD*%
G01*
G04 APERTURE LIST*
%ADD10C,3.200000*%
%ADD11C,1.600000*%
%ADD12R,1.600000X1.600000*%
%ADD13R,1.450000X2.100000*%
%ADD14R,1.700000X0.650000*%
%ADD15R,1.550000X1.300000*%
G04 APERTURE END LIST*
%TO.C,C1*%
G36*
G01*
X164350000Y-129887500D02*
X165300000Y-129887500D01*
G75*
G02*
X165550000Y-130137500I0J-250000D01*
G01*
X165550000Y-130812500D01*
G75*
G02*
X165300000Y-131062500I-250000J0D01*
G01*
X164350000Y-131062500D01*
G75*
G02*
X164100000Y-130812500I0J250000D01*
G01*
X164100000Y-130137500D01*
G75*
G02*
X164350000Y-129887500I250000J0D01*
G01*
G37*
G36*
G01*
X164350000Y-127812500D02*
X165300000Y-127812500D01*
G75*
G02*
X165550000Y-128062500I0J-250000D01*
G01*
X165550000Y-128737500D01*
G75*
G02*
X165300000Y-128987500I-250000J0D01*
G01*
X164350000Y-128987500D01*
G75*
G02*
X164100000Y-128737500I0J250000D01*
G01*
X164100000Y-128062500D01*
G75*
G02*
X164350000Y-127812500I250000J0D01*
G01*
G37*
%TD*%
D10*
%TO.C,MH1*%
X141100000Y-122100000D03*
%TD*%
%TO.C,MH2*%
X174800000Y-138900000D03*
%TD*%
D11*
%TO.C,J1*%
X144540000Y-135880000D03*
X144540000Y-133340000D03*
X144540000Y-130800000D03*
X142000000Y-135880000D03*
X142000000Y-133340000D03*
G36*
G01*
X141200000Y-131364800D02*
X141200000Y-130235200D01*
G75*
G02*
X141435200Y-130000000I235200J0D01*
G01*
X142564800Y-130000000D01*
G75*
G02*
X142800000Y-130235200I0J-235200D01*
G01*
X142800000Y-131364800D01*
G75*
G02*
X142564800Y-131600000I-235200J0D01*
G01*
X141435200Y-131600000D01*
G75*
G02*
X141200000Y-131364800I0J235200D01*
G01*
G37*
%TD*%
%TO.C,J3*%
X162600000Y-123200000D03*
X165100000Y-123200000D03*
X167600000Y-123200000D03*
X170100000Y-123200000D03*
D12*
X172600000Y-123200000D03*
%TD*%
%TO.C,J2*%
X156600000Y-123200000D03*
D11*
X154100000Y-123200000D03*
X151600000Y-123200000D03*
%TD*%
D13*
%TO.C,U2*%
X167800000Y-128100000D03*
X170340000Y-128100000D03*
X170340000Y-137200000D03*
X167800000Y-137200000D03*
%TD*%
D14*
%TO.C,U1*%
X162600000Y-128130000D03*
X162600000Y-129400000D03*
X162600000Y-130670000D03*
X162600000Y-131940000D03*
X155300000Y-131940000D03*
X155300000Y-130670000D03*
X155300000Y-129400000D03*
X155300000Y-128130000D03*
%TD*%
D15*
%TO.C,SW1*%
X154925000Y-134650000D03*
X162875000Y-134650000D03*
X154925000Y-139150000D03*
X162875000Y-139150000D03*
%TD*%
%TO.C,R6*%
G36*
G01*
X172849999Y-129500000D02*
X173750001Y-129500000D01*
G75*
G02*
X174000000Y-129749999I0J-249999D01*
G01*
X174000000Y-130450001D01*
G75*
G02*
X173750001Y-130700000I-249999J0D01*
G01*
X172849999Y-130700000D01*
G75*
G02*
X172600000Y-130450001I0J249999D01*
G01*
X172600000Y-129749999D01*
G75*
G02*
X172849999Y-129500000I249999J0D01*
G01*
G37*
G36*
G01*
X172849999Y-127500000D02*
X173750001Y-127500000D01*
G75*
G02*
X174000000Y-127749999I0J-249999D01*
G01*
X174000000Y-128450001D01*
G75*
G02*
X173750001Y-128700000I-249999J0D01*
G01*
X172849999Y-128700000D01*
G75*
G02*
X172600000Y-128450001I0J249999D01*
G01*
X172600000Y-127749999D01*
G75*
G02*
X172849999Y-127500000I249999J0D01*
G01*
G37*
%TD*%
%TO.C,R5*%
G36*
G01*
X150900000Y-137250001D02*
X150900000Y-136349999D01*
G75*
G02*
X151149999Y-136100000I249999J0D01*
G01*
X151850001Y-136100000D01*
G75*
G02*
X152100000Y-136349999I0J-249999D01*
G01*
X152100000Y-137250001D01*
G75*
G02*
X151850001Y-137500000I-249999J0D01*
G01*
X151149999Y-137500000D01*
G75*
G02*
X150900000Y-137250001I0J249999D01*
G01*
G37*
G36*
G01*
X148900000Y-137250001D02*
X148900000Y-136349999D01*
G75*
G02*
X149149999Y-136100000I249999J0D01*
G01*
X149850001Y-136100000D01*
G75*
G02*
X150100000Y-136349999I0J-249999D01*
G01*
X150100000Y-137250001D01*
G75*
G02*
X149850001Y-137500000I-249999J0D01*
G01*
X149149999Y-137500000D01*
G75*
G02*
X148900000Y-137250001I0J249999D01*
G01*
G37*
%TD*%
%TO.C,R4*%
G36*
G01*
X150900000Y-135050001D02*
X150900000Y-134149999D01*
G75*
G02*
X151149999Y-133900000I249999J0D01*
G01*
X151850001Y-133900000D01*
G75*
G02*
X152100000Y-134149999I0J-249999D01*
G01*
X152100000Y-135050001D01*
G75*
G02*
X151850001Y-135300000I-249999J0D01*
G01*
X151149999Y-135300000D01*
G75*
G02*
X150900000Y-135050001I0J249999D01*
G01*
G37*
G36*
G01*
X148900000Y-135050001D02*
X148900000Y-134149999D01*
G75*
G02*
X149149999Y-133900000I249999J0D01*
G01*
X149850001Y-133900000D01*
G75*
G02*
X150100000Y-134149999I0J-249999D01*
G01*
X150100000Y-135050001D01*
G75*
G02*
X149850001Y-135300000I-249999J0D01*
G01*
X149149999Y-135300000D01*
G75*
G02*
X148900000Y-135050001I0J249999D01*
G01*
G37*
%TD*%
%TO.C,R3*%
G36*
G01*
X170000000Y-140150001D02*
X170000000Y-139249999D01*
G75*
G02*
X170249999Y-139000000I249999J0D01*
G01*
X170950001Y-139000000D01*
G75*
G02*
X171200000Y-139249999I0J-249999D01*
G01*
X171200000Y-140150001D01*
G75*
G02*
X170950001Y-140400000I-249999J0D01*
G01*
X170249999Y-140400000D01*
G75*
G02*
X170000000Y-140150001I0J249999D01*
G01*
G37*
G36*
G01*
X168000000Y-140150001D02*
X168000000Y-139249999D01*
G75*
G02*
X168249999Y-139000000I249999J0D01*
G01*
X168950001Y-139000000D01*
G75*
G02*
X169200000Y-139249999I0J-249999D01*
G01*
X169200000Y-140150001D01*
G75*
G02*
X168950001Y-140400000I-249999J0D01*
G01*
X168249999Y-140400000D01*
G75*
G02*
X168000000Y-140150001I0J249999D01*
G01*
G37*
%TD*%
%TO.C,R2*%
G36*
G01*
X165250001Y-132850000D02*
X164349999Y-132850000D01*
G75*
G02*
X164100000Y-132600001I0J249999D01*
G01*
X164100000Y-131899999D01*
G75*
G02*
X164349999Y-131650000I249999J0D01*
G01*
X165250001Y-131650000D01*
G75*
G02*
X165500000Y-131899999I0J-249999D01*
G01*
X165500000Y-132600001D01*
G75*
G02*
X165250001Y-132850000I-249999J0D01*
G01*
G37*
G36*
G01*
X165250001Y-134850000D02*
X164349999Y-134850000D01*
G75*
G02*
X164100000Y-134600001I0J249999D01*
G01*
X164100000Y-133899999D01*
G75*
G02*
X164349999Y-133650000I249999J0D01*
G01*
X165250001Y-133650000D01*
G75*
G02*
X165500000Y-133899999I0J-249999D01*
G01*
X165500000Y-134600001D01*
G75*
G02*
X165250001Y-134850000I-249999J0D01*
G01*
G37*
%TD*%
%TO.C,R1*%
G36*
G01*
X150100000Y-127849999D02*
X150100000Y-128750001D01*
G75*
G02*
X149850001Y-129000000I-249999J0D01*
G01*
X149149999Y-129000000D01*
G75*
G02*
X148900000Y-128750001I0J249999D01*
G01*
X148900000Y-127849999D01*
G75*
G02*
X149149999Y-127600000I249999J0D01*
G01*
X149850001Y-127600000D01*
G75*
G02*
X150100000Y-127849999I0J-249999D01*
G01*
G37*
G36*
G01*
X152100000Y-127849999D02*
X152100000Y-128750001D01*
G75*
G02*
X151850001Y-129000000I-249999J0D01*
G01*
X151149999Y-129000000D01*
G75*
G02*
X150900000Y-128750001I0J249999D01*
G01*
X150900000Y-127849999D01*
G75*
G02*
X151149999Y-127600000I249999J0D01*
G01*
X151850001Y-127600000D01*
G75*
G02*
X152100000Y-127849999I0J-249999D01*
G01*
G37*
%TD*%
%TO.C,D2*%
G36*
G01*
X150925000Y-132950001D02*
X150925000Y-132049999D01*
G75*
G02*
X151174999Y-131800000I249999J0D01*
G01*
X151825001Y-131800000D01*
G75*
G02*
X152075000Y-132049999I0J-249999D01*
G01*
X152075000Y-132950001D01*
G75*
G02*
X151825001Y-133200000I-249999J0D01*
G01*
X151174999Y-133200000D01*
G75*
G02*
X150925000Y-132950001I0J249999D01*
G01*
G37*
G36*
G01*
X148875000Y-132950001D02*
X148875000Y-132049999D01*
G75*
G02*
X149124999Y-131800000I249999J0D01*
G01*
X149775001Y-131800000D01*
G75*
G02*
X150025000Y-132049999I0J-249999D01*
G01*
X150025000Y-132950001D01*
G75*
G02*
X149775001Y-133200000I-249999J0D01*
G01*
X149124999Y-133200000D01*
G75*
G02*
X148875000Y-132950001I0J249999D01*
G01*
G37*
%TD*%
%TO.C,D1*%
G36*
G01*
X150925000Y-130850001D02*
X150925000Y-129949999D01*
G75*
G02*
X151174999Y-129700000I249999J0D01*
G01*
X151825001Y-129700000D01*
G75*
G02*
X152075000Y-129949999I0J-249999D01*
G01*
X152075000Y-130850001D01*
G75*
G02*
X151825001Y-131100000I-249999J0D01*
G01*
X151174999Y-131100000D01*
G75*
G02*
X150925000Y-130850001I0J249999D01*
G01*
G37*
G36*
G01*
X148875000Y-130850001D02*
X148875000Y-129949999D01*
G75*
G02*
X149124999Y-129700000I249999J0D01*
G01*
X149775001Y-129700000D01*
G75*
G02*
X150025000Y-129949999I0J-249999D01*
G01*
X150025000Y-130850001D01*
G75*
G02*
X149775001Y-131100000I-249999J0D01*
G01*
X149124999Y-131100000D01*
G75*
G02*
X148875000Y-130850001I0J249999D01*
G01*
G37*
%TD*%
M02*
