M48
; DRILL file {KiCad (5.1.10)-1} date 07/24/22 21:09:47
; FORMAT={-:-/ absolute / metric / decimal}
; #@! TF.CreationDate,2022-07-24T21:09:47+02:00
; #@! TF.GenerationSoftware,Kicad,Pcbnew,(5.1.10)-1
; #@! TF.FileFunction,Plated,1,2,PTH
FMAT,2
METRIC
T1C0.300
T2C0.800
T3C1.000
%
G90
G05
T1
X146.95Y-129.4
X147.8Y-136.8
X147.9Y-132.0
X147.9Y-132.9
X148.0Y-130.4
X153.1Y-139.1
X154.7Y-133.1
X154.9Y-140.8
X155.5Y-133.1
X156.3Y-133.1
X156.7Y-139.1
X157.1Y-131.5
X157.1Y-132.3
X157.1Y-133.1
X157.6Y-126.8
X160.3Y-129.4
X160.3Y-130.67
X160.3Y-131.94
X161.1Y-139.1
X162.9Y-140.8
X164.7Y-139.1
X166.5Y-130.5
X170.6Y-141.1
X172.1Y-136.6
X172.1Y-137.8
X172.1Y-139.7
X173.3Y-131.7
X175.0Y-130.1
T2
X151.6Y-123.2
X154.1Y-123.2
X156.6Y-123.2
X162.6Y-123.2
X165.1Y-123.2
X167.6Y-123.2
X170.1Y-123.2
X172.6Y-123.2
T3
X142.0Y-130.8
X142.0Y-133.34
X142.0Y-135.88
X144.54Y-130.8
X144.54Y-133.34
X144.54Y-135.88
T0
M30
